<svg width="32" height="25" viewBox="0 0 32 25" fill="none" xmlns="http://www.w3.org/2000/svg">
<g filter="url(#filter0_d_2956_37158)">
<path opacity="0.7" fill-rule="evenodd" clip-rule="evenodd" d="M23.336 5.12623L23.3731 5.21133L23.462 5.23795C24.7952 5.63701 25.9406 6.502 26.6891 7.67516C27.4377 8.84831 27.7397 10.2515 27.5399 11.6287C27.3401 13.0059 26.652 14.2655 25.6009 15.1776C24.5499 16.0897 23.206 16.5936 21.8144 16.5975H8.61098C7.48324 16.5999 6.3939 16.188 5.54983 15.4401C4.70576 14.6922 4.16574 13.6604 4.03232 12.5406C3.89891 11.4207 4.18139 10.2909 4.82613 9.36564C5.47086 8.44037 6.43295 7.7841 7.52968 7.52146L7.66381 7.48934L7.68146 7.35255C7.91108 5.5726 8.71815 3.91709 9.97893 2.63985C11.2397 1.3626 12.8846 0.534118 14.6614 0.281427C16.4382 0.0287362 18.2489 0.365784 19.8158 1.24089C21.3827 2.116 22.6193 3.48087 23.336 5.12623ZM21.8149 14.5969L21.8172 14.5968C22.7615 14.586 23.668 14.224 24.36 13.5814C25.0521 12.9389 25.4801 12.0616 25.5607 11.1207C25.6414 10.1798 25.3689 9.24255 24.7963 8.49156C24.2237 7.74057 23.3921 7.2296 22.4634 7.05823L22.4601 7.05769C22.2827 7.02796 22.1166 6.95095 21.9793 6.83476C21.842 6.71857 21.7386 6.56751 21.6799 6.39748C21.2043 5.00991 20.2523 3.83583 18.993 3.08377C17.7335 2.33164 16.2482 2.05032 14.8009 2.2898C13.3536 2.52928 12.0381 3.27404 11.088 4.39178C10.138 5.50952 9.61489 6.92829 9.61172 8.39524C9.61172 8.66054 9.50633 8.91498 9.31874 9.10258C9.13114 9.29017 8.87671 9.39556 8.6114 9.39556C7.92167 9.39556 7.26019 9.66956 6.77247 10.1573C6.28476 10.645 6.01076 11.3065 6.01076 11.9962C6.01076 12.6859 6.28476 13.3474 6.77247 13.8351C7.26019 14.3228 7.92167 14.5968 8.6114 14.5968L21.8149 14.5969Z" fill="black"/>
<path opacity="0.7" fill-rule="evenodd" clip-rule="evenodd" d="M23.4772 5.79566C23.4908 5.86162 23.498 5.92997 23.498 6C23.498 6.55228 23.0503 7 22.498 7C21.9988 7 21.5851 6.6342 21.5101 6.15602C20.7321 3.7445 18.4692 2 15.7988 2C12.4851 2 9.79883 4.68629 9.79883 8C9.79883 9.19216 10.1465 10.3031 10.746 11.237C10.8754 11.3467 10.9766 11.4888 11.0369 11.6507C11.0424 11.6579 11.0479 11.665 11.0534 11.6721L11.0461 11.6766C11.0808 11.778 11.0996 11.8868 11.0996 12C11.0996 12.5523 10.6519 13 10.0996 13C9.81656 13 9.56097 12.8824 9.37905 12.6934L9.33784 12.7185C8.37012 11.3957 7.79883 9.76457 7.79883 8C7.79883 3.58172 11.3806 0 15.7988 0C19.4514 0 22.5323 2.4479 23.4904 5.79267L23.4772 5.79566Z" fill="#00BB9D"/>
</g>
<defs>
<filter id="filter0_d_2956_37158" x="0" y="0" width="31.5996" height="24.5974" filterUnits="userSpaceOnUse" color-interpolation-filters="sRGB">
<feFlood flood-opacity="0" result="BackgroundImageFix"/>
<feColorMatrix in="SourceAlpha" type="matrix" values="0 0 0 0 0 0 0 0 0 0 0 0 0 0 0 0 0 0 127 0" result="hardAlpha"/>
<feOffset dy="4"/>
<feGaussianBlur stdDeviation="2"/>
<feComposite in2="hardAlpha" operator="out"/>
<feColorMatrix type="matrix" values="0 0 0 0 0 0 0 0 0 0 0 0 0 0 0 0 0 0 0.25 0"/>
<feBlend mode="normal" in2="BackgroundImageFix" result="effect1_dropShadow_2956_37158"/>
<feBlend mode="normal" in="SourceGraphic" in2="effect1_dropShadow_2956_37158" result="shape"/>
</filter>
</defs>
</svg>
