<svg width="14" height="14" viewBox="0 0 14 14" fill="none" xmlns="http://www.w3.org/2000/svg">
<g opacity="0.7">
<path d="M10.5 1H1.5C1.36739 1 1.24021 1.05268 1.14645 1.14645C1.05268 1.24021 1 1.36739 1 1.5V10.5C1 10.6326 1.05268 10.7598 1.14645 10.8536C1.24021 10.9473 1.36739 11 1.5 11H10.5C10.6326 11 10.7598 10.9473 10.8536 10.8536C10.9473 10.7598 11 10.6326 11 10.5V1.5C11 1.36739 10.9473 1.24021 10.8536 1.14645C10.7598 1.05268 10.6326 1 10.5 1ZM5.5 10H2V2H5.5V10ZM10 10H6.5V2H10V10Z" fill="black"/>
</g>
</svg>
