<svg width="43" height="39" viewBox="0 0 43 39" fill="none" xmlns="http://www.w3.org/2000/svg">
<rect y="8" width="43" height="20" rx="10" fill="white"/>
<rect x="0.9" y="8.9" width="41.2" height="18.2" rx="9.1" stroke="black" stroke-opacity="0.3" stroke-width="1.8"/>
<path d="M14.6424 14.135C14.8111 14.135 14.9321 14.1937 15.0054 14.311C15.0861 14.421 15.1264 14.5567 15.1264 14.718C15.1264 14.872 15.0861 15.0077 15.0054 15.125C14.9321 15.2423 14.8111 15.301 14.6424 15.301H11.3534V17.38H14.4224C14.5838 17.38 14.7011 17.4387 14.7744 17.556C14.8551 17.666 14.8954 17.798 14.8954 17.952C14.8954 18.106 14.8551 18.2417 14.7744 18.359C14.7011 18.469 14.5838 18.524 14.4224 18.524H11.3534V20.79H14.7194C14.8881 20.79 15.0091 20.8487 15.0824 20.966C15.1631 21.0833 15.2034 21.219 15.2034 21.373C15.2034 21.5343 15.1631 21.6737 15.0824 21.791C15.0091 21.901 14.8881 21.956 14.7194 21.956H10.8914C10.5394 21.956 10.2938 21.89 10.1544 21.758C10.0224 21.626 9.95643 21.3877 9.95643 21.043V15.048C9.95643 14.7033 10.0224 14.465 10.1544 14.333C10.2938 14.201 10.5394 14.135 10.8914 14.135H14.6424ZM19.3988 14.135C19.9708 14.135 20.4695 14.2047 20.8948 14.344C21.3275 14.476 21.6905 14.6923 21.9838 14.993C22.2771 15.2863 22.4971 15.6677 22.6438 16.137C22.7905 16.6063 22.8638 17.1747 22.8638 17.842V18.249C22.8638 18.9163 22.7905 19.4847 22.6438 19.954C22.4971 20.4233 22.2771 20.8083 21.9838 21.109C21.6905 21.4023 21.3275 21.6187 20.8948 21.758C20.4695 21.89 19.9708 21.956 19.3988 21.956H17.5838C17.2318 21.956 16.9861 21.89 16.8468 21.758C16.7148 21.626 16.6488 21.3877 16.6488 21.043V15.048C16.6488 14.7033 16.7148 14.465 16.8468 14.333C16.9861 14.201 17.2318 14.135 17.5838 14.135H19.3988ZM18.0458 20.768H19.2118C19.6151 20.768 19.9561 20.724 20.2348 20.636C20.5208 20.548 20.7518 20.4013 20.9278 20.196C21.1111 19.9907 21.2431 19.723 21.3238 19.393C21.4045 19.0557 21.4448 18.6377 21.4448 18.139V17.952C21.4448 17.4607 21.4045 17.0463 21.3238 16.709C21.2431 16.3717 21.1111 16.1003 20.9278 15.895C20.7518 15.6897 20.5208 15.543 20.2348 15.455C19.9561 15.367 19.6151 15.323 19.2118 15.323H18.0458V20.768ZM25.055 14.069C25.2456 14.069 25.4106 14.1167 25.55 14.212C25.6893 14.3073 25.759 14.4613 25.759 14.674V21.417C25.759 21.6297 25.6893 21.7837 25.55 21.879C25.4106 21.9743 25.2456 22.022 25.055 22.022C24.8643 22.022 24.6993 21.9743 24.56 21.879C24.4206 21.7837 24.351 21.6297 24.351 21.417V14.674C24.351 14.4613 24.4206 14.3073 24.56 14.212C24.6993 14.1167 24.8643 14.069 25.055 14.069ZM32.3924 14.135C32.5611 14.135 32.6857 14.1937 32.7664 14.311C32.8471 14.4283 32.8874 14.5677 32.8874 14.729C32.8874 14.8903 32.8471 15.0297 32.7664 15.147C32.6857 15.2643 32.5611 15.323 32.3924 15.323H30.5004V21.417C30.5004 21.6297 30.4307 21.7837 30.2914 21.879C30.1521 21.9743 29.9871 22.022 29.7964 22.022C29.6057 22.022 29.4407 21.9743 29.3014 21.879C29.1621 21.7837 29.0924 21.6297 29.0924 21.417V15.323H27.1894C27.0207 15.323 26.8961 15.2643 26.8154 15.147C26.7347 15.0297 26.6944 14.8903 26.6944 14.729C26.6944 14.5677 26.7347 14.4283 26.8154 14.311C26.8961 14.1937 27.0207 14.135 27.1894 14.135H32.3924Z" fill="black" fill-opacity="0.3"/>
</svg>
