<svg width="24" height="24" viewBox="0 0 24 24" fill="none" xmlns="http://www.w3.org/2000/svg">
<path d="M16.5 20L20 16.5" stroke="#00D9B6" stroke-opacity="0.7" stroke-width="2"/>
<path d="M21.0719 16.8312L19.0019 14.7112C18.5567 14.2879 17.995 14.0075 17.3892 13.9059C16.7833 13.8043 16.1609 13.8863 15.6019 14.1412L14.7019 13.2412C15.7625 11.8241 16.2468 10.0578 16.0575 8.298C15.8681 6.53816 15.0191 4.91539 13.6814 3.75636C12.3436 2.59734 10.6165 1.98812 8.84761 2.05135C7.07874 2.11457 5.39949 2.84555 4.14791 4.09713C2.89633 5.34871 2.16536 7.02796 2.10213 8.79683C2.0389 10.5657 2.64812 12.2928 3.80714 13.6306C4.96617 14.9683 6.58894 15.8173 8.34878 16.0067C10.1086 16.1961 11.8749 15.7117 13.2919 14.6512L14.1819 15.5412C13.897 16.1008 13.7949 16.7357 13.89 17.3565C13.9851 17.9772 14.2726 18.5525 14.7119 19.0012L16.8319 21.1212C17.3944 21.683 18.1569 21.9985 18.9519 21.9985C19.7469 21.9985 20.5094 21.683 21.0719 21.1212C21.3577 20.8418 21.5847 20.5081 21.7397 20.1398C21.8947 19.7714 21.9746 19.3758 21.9746 18.9762C21.9746 18.5765 21.8947 18.1809 21.7397 17.8126C21.5847 17.4442 21.3577 17.1106 21.0719 16.8312ZM12.5919 12.5912C11.8922 13.2892 11.0012 13.7641 10.0317 13.956C9.06212 14.1479 8.05744 14.0482 7.14455 13.6693C6.23165 13.2905 5.4515 12.6497 4.90266 11.8277C4.35381 11.0057 4.06088 10.0395 4.06088 9.05116C4.06088 8.06279 4.35381 7.0966 4.90266 6.27462C5.4515 5.45265 6.23165 4.81178 7.14455 4.43297C8.05744 4.05417 9.06212 3.95441 10.0317 4.14631C11.0012 4.33822 11.8922 4.81316 12.5919 5.51116C13.0576 5.97562 13.427 6.52737 13.6791 7.13483C13.9311 7.74228 14.0609 8.39349 14.0609 9.05116C14.0609 9.70884 13.9311 10.36 13.6791 10.9675C13.427 11.575 13.0576 12.1267 12.5919 12.5912ZM19.6619 19.6612C19.569 19.7549 19.4584 19.8293 19.3365 19.8801C19.2147 19.9308 19.084 19.957 18.9519 19.957C18.8199 19.957 18.6892 19.9308 18.5674 19.8801C18.4455 19.8293 18.3349 19.7549 18.2419 19.6612L16.1219 17.5412C16.0282 17.4482 15.9538 17.3376 15.9031 17.2157C15.8523 17.0939 15.8261 16.9632 15.8261 16.8312C15.8261 16.6992 15.8523 16.5684 15.9031 16.4466C15.9538 16.3247 16.0282 16.2141 16.1219 16.1212C16.2149 16.0274 16.3255 15.953 16.4474 15.9023C16.5692 15.8515 16.6999 15.8254 16.8319 15.8254C16.964 15.8254 17.0947 15.8515 17.2165 15.9023C17.3384 15.953 17.449 16.0274 17.5419 16.1212L19.6619 18.2412C19.7557 18.3341 19.8301 18.4447 19.8808 18.5666C19.9316 18.6884 19.9577 18.8192 19.9577 18.9512C19.9577 19.0832 19.9316 19.2139 19.8808 19.3357C19.8301 19.4576 19.7557 19.5682 19.6619 19.6612Z" fill="black" fill-opacity="0.7"/>
</svg>
