<svg width="20" height="21" viewBox="0 0 20 21" fill="none" xmlns="http://www.w3.org/2000/svg">
<g opacity="0.7" filter="url(#filter0_d_1981_28188)">
<path d="M9.99935 6.41675C9.84464 6.41675 9.69627 6.47821 9.58687 6.5876C9.47748 6.697 9.41602 6.84537 9.41602 7.00008V9.33341C9.41602 9.48812 9.47748 9.6365 9.58687 9.74589C9.69627 9.85529 9.84464 9.91675 9.99935 9.91675C10.1541 9.91675 10.3024 9.85529 10.4118 9.74589C10.5212 9.6365 10.5827 9.48812 10.5827 9.33341V7.00008C10.5827 6.84537 10.5212 6.697 10.4118 6.5876C10.3024 6.47821 10.1541 6.41675 9.99935 6.41675ZM10.221 4.13008C10.079 4.07174 9.9197 4.07174 9.77769 4.13008C9.70608 4.15784 9.64066 4.19947 9.58519 4.25258C9.53366 4.30928 9.49223 4.37439 9.46269 4.44508C9.43003 4.51431 9.41405 4.59023 9.41602 4.66675C9.41558 4.74352 9.43029 4.81962 9.45932 4.89069C9.48835 4.96177 9.53112 5.02641 9.58519 5.08091C9.64189 5.13244 9.70699 5.17387 9.77769 5.20341C9.86606 5.23972 9.962 5.25377 10.0571 5.24431C10.1521 5.23486 10.2434 5.2022 10.3229 5.1492C10.4024 5.09621 10.4677 5.0245 10.513 4.94037C10.5583 4.85625 10.5822 4.76229 10.5827 4.66675C10.5805 4.5123 10.5201 4.36437 10.4135 4.25258C10.358 4.19947 10.2926 4.15784 10.221 4.13008ZM9.99935 1.16675C8.84563 1.16675 7.71781 1.50887 6.75853 2.14984C5.79924 2.79082 5.05157 3.70186 4.61005 4.76776C4.16854 5.83366 4.05302 7.00655 4.2781 8.13811C4.50318 9.26966 5.05876 10.3091 5.87456 11.1249C6.69037 11.9407 7.72977 12.4962 8.86133 12.7213C9.99288 12.9464 11.1658 12.8309 12.2317 12.3894C13.2976 11.9479 14.2086 11.2002 14.8496 10.2409C15.4906 9.28162 15.8327 8.15381 15.8327 7.00008C15.8327 6.23404 15.6818 5.47549 15.3886 4.76776C15.0955 4.06003 14.6658 3.41697 14.1241 2.87529C13.5825 2.33362 12.9394 1.90394 12.2317 1.61078C11.5239 1.31763 10.7654 1.16675 9.99935 1.16675ZM9.99935 11.6667C9.07637 11.6667 8.17412 11.3931 7.40669 10.8803C6.63926 10.3675 6.04112 9.63866 5.68791 8.78594C5.3347 7.93322 5.24229 6.9949 5.42235 6.08966C5.60242 5.18442 6.04688 4.35289 6.69952 3.70025C7.35217 3.0476 8.18369 2.60315 9.08893 2.42308C9.99418 2.24302 10.9325 2.33543 11.7852 2.68864C12.6379 3.04185 13.3668 3.63999 13.8795 4.40742C14.3923 5.17485 14.666 6.0771 14.666 7.00008C14.666 8.23776 14.1744 9.42474 13.2992 10.2999C12.424 11.1751 11.237 11.6667 9.99935 11.6667Z" fill="black"/>
</g>
<defs>
<filter id="filter0_d_1981_28188" x="-1" y="0" width="22" height="22" filterUnits="userSpaceOnUse" color-interpolation-filters="sRGB">
<feFlood flood-opacity="0" result="BackgroundImageFix"/>
<feColorMatrix in="SourceAlpha" type="matrix" values="0 0 0 0 0 0 0 0 0 0 0 0 0 0 0 0 0 0 127 0" result="hardAlpha"/>
<feOffset dy="4"/>
<feGaussianBlur stdDeviation="2"/>
<feComposite in2="hardAlpha" operator="out"/>
<feColorMatrix type="matrix" values="0 0 0 0 0 0 0 0 0 0 0 0 0 0 0 0 0 0 0.25 0"/>
<feBlend mode="normal" in2="BackgroundImageFix" result="effect1_dropShadow_1981_28188"/>
<feBlend mode="normal" in="SourceGraphic" in2="effect1_dropShadow_1981_28188" result="shape"/>
</filter>
</defs>
</svg>
