<svg width="21" height="21" viewBox="0 0 21 21" fill="none" xmlns="http://www.w3.org/2000/svg">
<path d="M18.013 14.193V5.83298C18.4926 5.66587 18.922 5.3797 19.2609 5.0013C19.5997 4.6229 19.8369 4.16466 19.9503 3.66954C20.0637 3.17441 20.0495 2.6586 19.909 2.17047C19.7685 1.68233 19.5065 1.23785 19.1473 0.87868C18.7881 0.519512 18.3436 0.257419 17.8555 0.116968C17.3674 -0.0234831 16.8516 -0.037694 16.3564 0.0756674C15.8613 0.189029 15.4031 0.42625 15.0247 0.765098C14.6463 1.10394 14.3601 1.53332 14.193 2.01298H5.83298C5.66587 1.53332 5.3797 1.10394 5.0013 0.765098C4.6229 0.42625 4.16466 0.189029 3.66954 0.0756674C3.17441 -0.037694 2.6586 -0.0234831 2.17047 0.116968C1.68233 0.257419 1.23785 0.519512 0.87868 0.87868C0.519512 1.23785 0.257419 1.68233 0.116968 2.17047C-0.0234831 2.6586 -0.037694 3.17441 0.0756674 3.66954C0.189029 4.16466 0.42625 4.6229 0.765098 5.0013C1.10394 5.3797 1.53332 5.66587 2.01298 5.83298V14.193C1.53332 14.3601 1.10394 14.6463 0.765098 15.0247C0.42625 15.4031 0.189029 15.8613 0.0756674 16.3564C-0.037694 16.8516 -0.0234831 17.3674 0.116968 17.8555C0.257419 18.3436 0.519512 18.7881 0.87868 19.1473C1.23785 19.5065 1.68233 19.7685 2.17047 19.909C2.6586 20.0495 3.17441 20.0637 3.66954 19.9503C4.16466 19.8369 4.6229 19.5997 5.0013 19.2609C5.3797 18.922 5.66587 18.4926 5.83298 18.013H14.193C14.3601 18.4926 14.6463 18.922 15.0247 19.2609C15.4031 19.5997 15.8613 19.8369 16.3564 19.9503C16.8516 20.0637 17.3674 20.0495 17.8555 19.909C18.3436 19.7685 18.7881 19.5065 19.1473 19.1473C19.5065 18.7881 19.7685 18.3436 19.909 17.8555C20.0495 17.3674 20.0637 16.8516 19.9503 16.3564C19.8369 15.8613 19.5997 15.4031 19.2609 15.0247C18.922 14.6463 18.4926 14.3601 18.013 14.193ZM17.013 2.01298C17.2108 2.01298 17.4041 2.07163 17.5686 2.18151C17.733 2.2914 17.8612 2.44757 17.9369 2.6303C18.0126 2.81303 18.0324 3.01409 17.9938 3.20807C17.9552 3.40206 17.8599 3.58024 17.7201 3.72009C17.5802 3.85994 17.4021 3.95518 17.2081 3.99377C17.0141 4.03235 16.813 4.01255 16.6303 3.93686C16.4476 3.86118 16.2914 3.733 16.1815 3.56855C16.0716 3.40411 16.013 3.21077 16.013 3.01298C16.013 2.74777 16.1183 2.49341 16.3059 2.30588C16.4934 2.11834 16.7478 2.01298 17.013 2.01298ZM3.01298 2.01298C3.21077 2.01298 3.40411 2.07163 3.56855 2.18151C3.733 2.2914 3.86118 2.44757 3.93686 2.6303C4.01255 2.81303 4.03235 3.01409 3.99377 3.20807C3.95518 3.40206 3.85994 3.58024 3.72009 3.72009C3.58024 3.85994 3.40206 3.95518 3.20807 3.99377C3.01409 4.03235 2.81303 4.01255 2.6303 3.93686C2.44757 3.86118 2.2914 3.733 2.18151 3.56855C2.07163 3.40411 2.01298 3.21077 2.01298 3.01298C2.01298 2.74777 2.11834 2.49341 2.30588 2.30588C2.49341 2.11834 2.74777 2.01298 3.01298 2.01298ZM3.01298 18.013C2.8152 18.013 2.62186 17.9543 2.45741 17.8445C2.29296 17.7346 2.16479 17.5784 2.0891 17.3957C2.01342 17.2129 1.99361 17.0119 2.0322 16.8179C2.07078 16.6239 2.16603 16.4457 2.30588 16.3059C2.44573 16.166 2.62391 16.0708 2.81789 16.0322C3.01187 15.9936 3.21294 16.0134 3.39567 16.0891C3.57839 16.1648 3.73457 16.293 3.84445 16.4574C3.95434 16.6219 4.01298 16.8152 4.01298 17.013C4.01298 17.2782 3.90763 17.5326 3.72009 17.7201C3.53255 17.9076 3.2782 18.013 3.01298 18.013ZM14.193 16.013H5.83298C5.68367 15.5936 5.44288 15.2127 5.12808 14.8979C4.81329 14.5831 4.43238 14.3423 4.01298 14.193V5.83298C4.43238 5.68367 4.81329 5.44288 5.12808 5.12808C5.44288 4.81329 5.68367 4.43238 5.83298 4.01298H14.193C14.3423 4.43238 14.5831 4.81329 14.8979 5.12808C15.2127 5.44288 15.5936 5.68367 16.013 5.83298V14.193C15.5936 14.3423 15.2127 14.5831 14.8979 14.8979C14.5831 15.2127 14.3423 15.5936 14.193 16.013ZM17.013 18.013C16.8152 18.013 16.6219 17.9543 16.4574 17.8445C16.293 17.7346 16.1648 17.5784 16.0891 17.3957C16.0134 17.2129 15.9936 17.0119 16.0322 16.8179C16.0708 16.6239 16.166 16.4457 16.3059 16.3059C16.4457 16.166 16.6239 16.0708 16.8179 16.0322C17.0119 15.9936 17.2129 16.0134 17.3957 16.0891C17.5784 16.1648 17.7346 16.293 17.8445 16.4574C17.9543 16.6219 18.013 16.8152 18.013 17.013C18.013 17.2782 17.9076 17.5326 17.7201 17.7201C17.5326 17.9076 17.2782 18.013 17.013 18.013Z" fill="black" fill-opacity="0.5"/>
</svg>
