<svg width="63" height="39" viewBox="0 0 63 39" fill="none" xmlns="http://www.w3.org/2000/svg">
<rect y="6" width="63" height="24" rx="12" fill="white"/>
<rect x="0.7" y="6.7" width="61.6" height="22.6" rx="11.3" stroke="black" stroke-opacity="0.3" stroke-width="1.4"/>
<path d="M10.7013 14.069C10.892 14.069 11.057 14.1167 11.1963 14.212C11.3357 14.3073 11.4053 14.4613 11.4053 14.674V20.768H14.5953C14.764 20.768 14.8887 20.8267 14.9693 20.944C15.05 21.0613 15.0903 21.2007 15.0903 21.362C15.0903 21.5233 15.05 21.6627 14.9693 21.78C14.8887 21.8973 14.764 21.956 14.5953 21.956H10.9323C10.5803 21.956 10.3347 21.89 10.1953 21.758C10.0633 21.626 9.99735 21.3877 9.99735 21.043V14.674C9.99735 14.4613 10.067 14.3073 10.2063 14.212C10.3457 14.1167 10.5107 14.069 10.7013 14.069ZM18.7853 14.014C19.3206 14.014 19.7973 14.0873 20.2153 14.234C20.6333 14.3807 20.9853 14.608 21.2713 14.916C21.5573 15.224 21.7736 15.62 21.9203 16.104C22.0743 16.5807 22.1513 17.1527 22.1513 17.82V18.271C22.1513 18.9383 22.0743 19.514 21.9203 19.998C21.7736 20.4747 21.5573 20.867 21.2713 21.175C20.9853 21.483 20.6333 21.7103 20.2153 21.857C19.7973 22.0037 19.3206 22.077 18.7853 22.077C18.25 22.077 17.7733 22.0037 17.3553 21.857C16.9373 21.7103 16.5853 21.483 16.2993 21.175C16.0133 20.867 15.7933 20.4747 15.6393 19.998C15.4926 19.514 15.4193 18.9383 15.4193 18.271V17.82C15.4193 17.1527 15.4926 16.5807 15.6393 16.104C15.7933 15.62 16.0133 15.224 16.2993 14.916C16.5853 14.608 16.9373 14.3807 17.3553 14.234C17.7733 14.0873 18.25 14.014 18.7853 14.014ZM18.7853 15.301C18.4626 15.301 18.1803 15.345 17.9383 15.433C17.6963 15.521 17.491 15.6677 17.3223 15.873C17.161 16.071 17.04 16.3387 16.9593 16.676C16.8786 17.0133 16.8383 17.4313 16.8383 17.93V18.161C16.8383 18.6597 16.8786 19.0777 16.9593 19.415C17.04 19.7523 17.161 20.0237 17.3223 20.229C17.491 20.427 17.6963 20.57 17.9383 20.658C18.1803 20.746 18.4626 20.79 18.7853 20.79C19.108 20.79 19.3903 20.746 19.6323 20.658C19.8743 20.57 20.076 20.427 20.2373 20.229C20.406 20.0237 20.5306 19.7523 20.6113 19.415C20.692 19.0777 20.7323 18.6597 20.7323 18.161V17.93C20.7323 17.4313 20.692 17.0133 20.6113 16.676C20.5306 16.3387 20.406 16.071 20.2373 15.873C20.076 15.6677 19.8743 15.521 19.6323 15.433C19.3903 15.345 19.108 15.301 18.7853 15.301ZM26.6673 14.014C27.188 14.014 27.6316 14.069 27.9983 14.179C28.3723 14.289 28.6876 14.432 28.9443 14.608C29.113 14.7253 29.2046 14.8683 29.2193 15.037C29.234 15.2057 29.19 15.3633 29.0873 15.51C28.9846 15.6567 28.8563 15.7483 28.7023 15.785C28.5556 15.8217 28.4126 15.796 28.2733 15.708C28.0606 15.576 27.8223 15.4733 27.5583 15.4C27.3016 15.3267 27.0046 15.29 26.6673 15.29C26.3006 15.29 25.9816 15.334 25.7103 15.422C25.4463 15.5027 25.2263 15.6457 25.0503 15.851C24.8816 16.0563 24.757 16.3277 24.6763 16.665C24.5956 17.0023 24.5553 17.424 24.5553 17.93V18.161C24.5553 18.667 24.5956 19.0887 24.6763 19.426C24.757 19.7633 24.8816 20.0347 25.0503 20.24C25.2263 20.4453 25.45 20.592 25.7213 20.68C26 20.7607 26.3373 20.801 26.7333 20.801C27.0046 20.801 27.2393 20.7827 27.4373 20.746C27.6426 20.7093 27.848 20.6507 28.0533 20.57V18.733H26.8213C26.6526 18.733 26.528 18.6743 26.4473 18.557C26.3666 18.4397 26.3263 18.3003 26.3263 18.139C26.3263 17.985 26.3666 17.8493 26.4473 17.732C26.528 17.6147 26.6526 17.556 26.8213 17.556H28.5153C28.8673 17.556 29.1093 17.622 29.2413 17.754C29.3806 17.886 29.4503 18.1243 29.4503 18.469V20.647C29.4503 20.9257 29.4026 21.142 29.3073 21.296C29.212 21.45 29.047 21.5783 28.8123 21.681C28.519 21.8057 28.1853 21.9047 27.8113 21.978C27.4446 22.044 27.0706 22.077 26.6893 22.077C26.1173 22.077 25.6076 22.011 25.1603 21.879C24.7203 21.7397 24.35 21.5197 24.0493 21.219C23.7486 20.9183 23.5213 20.526 23.3673 20.042C23.2133 19.558 23.1363 18.9677 23.1363 18.271V17.82C23.1363 17.1233 23.2133 16.533 23.3673 16.049C23.5213 15.565 23.7486 15.1727 24.0493 14.872C24.35 14.5713 24.7166 14.355 25.1493 14.223C25.5893 14.0837 26.0953 14.014 26.6673 14.014ZM36.3933 14.014C36.9286 14.014 37.4053 14.0873 37.8233 14.234C38.2413 14.3807 38.5933 14.608 38.8793 14.916C39.1653 15.224 39.3816 15.62 39.5283 16.104C39.6823 16.5807 39.7593 17.1527 39.7593 17.82V18.271C39.7593 18.9383 39.6823 19.514 39.5283 19.998C39.3816 20.4747 39.1653 20.867 38.8793 21.175C38.5933 21.483 38.2413 21.7103 37.8233 21.857C37.4053 22.0037 36.9286 22.077 36.3933 22.077C35.858 22.077 35.3813 22.0037 34.9633 21.857C34.5453 21.7103 34.1933 21.483 33.9073 21.175C33.6213 20.867 33.4013 20.4747 33.2473 19.998C33.1006 19.514 33.0273 18.9383 33.0273 18.271V17.82C33.0273 17.1527 33.1006 16.5807 33.2473 16.104C33.4013 15.62 33.6213 15.224 33.9073 14.916C34.1933 14.608 34.5453 14.3807 34.9633 14.234C35.3813 14.0873 35.858 14.014 36.3933 14.014ZM36.3933 15.301C36.0706 15.301 35.7883 15.345 35.5463 15.433C35.3043 15.521 35.099 15.6677 34.9303 15.873C34.769 16.071 34.648 16.3387 34.5673 16.676C34.4866 17.0133 34.4463 17.4313 34.4463 17.93V18.161C34.4463 18.6597 34.4866 19.0777 34.5673 19.415C34.648 19.7523 34.769 20.0237 34.9303 20.229C35.099 20.427 35.3043 20.57 35.5463 20.658C35.7883 20.746 36.0706 20.79 36.3933 20.79C36.716 20.79 36.9983 20.746 37.2403 20.658C37.4823 20.57 37.684 20.427 37.8453 20.229C38.014 20.0237 38.1386 19.7523 38.2193 19.415C38.3 19.0777 38.3403 18.6597 38.3403 18.161V17.93C38.3403 17.4313 38.3 17.0133 38.2193 16.676C38.1386 16.3387 38.014 16.071 37.8453 15.873C37.684 15.6677 37.4823 15.521 37.2403 15.433C36.9983 15.345 36.716 15.301 36.3933 15.301ZM41.6023 14.069C41.793 14.069 41.958 14.1167 42.0973 14.212C42.2366 14.3073 42.3063 14.4613 42.3063 14.674V18.711C42.3063 19.0997 42.3393 19.4297 42.4053 19.701C42.4713 19.965 42.5703 20.1813 42.7023 20.35C42.8416 20.5113 43.0176 20.6287 43.2303 20.702C43.443 20.768 43.6923 20.801 43.9783 20.801C44.2643 20.801 44.5136 20.768 44.7263 20.702C44.939 20.6287 45.1113 20.5113 45.2433 20.35C45.3826 20.1813 45.4853 19.965 45.5513 19.701C45.6173 19.4297 45.6503 19.0997 45.6503 18.711V14.674C45.6503 14.4613 45.72 14.3073 45.8593 14.212C45.9986 14.1167 46.1636 14.069 46.3543 14.069C46.545 14.069 46.71 14.1167 46.8493 14.212C46.9886 14.3073 47.0583 14.4613 47.0583 14.674V18.689C47.0583 19.3417 46.9886 19.8843 46.8493 20.317C46.7173 20.7497 46.5193 21.098 46.2553 21.362C45.9986 21.6187 45.6796 21.802 45.2983 21.912C44.917 22.022 44.477 22.077 43.9783 22.077C43.4796 22.077 43.0396 22.022 42.6583 21.912C42.277 21.802 41.9543 21.6187 41.6903 21.362C41.4336 21.098 41.2356 20.7497 41.0963 20.317C40.9643 19.8843 40.8983 19.3417 40.8983 18.689V14.674C40.8983 14.4613 40.968 14.3073 41.1073 14.212C41.2466 14.1167 41.4116 14.069 41.6023 14.069ZM53.3515 14.135C53.5201 14.135 53.6448 14.1937 53.7255 14.311C53.8061 14.4283 53.8465 14.5677 53.8465 14.729C53.8465 14.8903 53.8061 15.0297 53.7255 15.147C53.6448 15.2643 53.5201 15.323 53.3515 15.323H51.4595V21.417C51.4595 21.6297 51.3898 21.7837 51.2505 21.879C51.1111 21.9743 50.9461 22.022 50.7555 22.022C50.5648 22.022 50.3998 21.9743 50.2605 21.879C50.1211 21.7837 50.0515 21.6297 50.0515 21.417V15.323H48.1485C47.9798 15.323 47.8551 15.2643 47.7745 15.147C47.6938 15.0297 47.6535 14.8903 47.6535 14.729C47.6535 14.5677 47.6938 14.4283 47.7745 14.311C47.8551 14.1937 47.9798 14.135 48.1485 14.135H53.3515Z" fill="black" fill-opacity="0.3"/>
</svg>
