<svg width="22" height="22" viewBox="0 0 22 22" fill="none" xmlns="http://www.w3.org/2000/svg">
<path d="M8.2793 13.3682C8.53016 14.6238 9.63861 15.5699 10.968 15.5699C12.2975 15.5699 13.4059 14.6238 13.6568 13.3682" stroke="#00BB9D" stroke-opacity="0.7" stroke-width="1.82796" stroke-linecap="round" stroke-linejoin="round"/>
<path d="M14.3589 11.6492C15.255 10.9442 15.909 9.97746 16.23 8.88345C16.5511 7.78944 16.5231 6.62256 16.1501 5.54517C15.7771 4.46777 15.0775 3.53343 14.1487 2.87213C13.22 2.21084 12.1082 1.85547 10.968 1.85547C9.82789 1.85547 8.7161 2.21084 7.78733 2.87213C6.85856 3.53343 6.159 4.46777 5.78597 5.54517C5.41295 6.62256 5.38501 7.78944 5.70605 8.88345C6.02708 9.97746 6.68112 10.9442 7.57718 11.6492C6.04176 12.2643 4.70206 13.2846 3.7009 14.6013C2.69973 15.9179 2.07463 17.4816 1.89223 19.1255C1.87903 19.2456 1.8896 19.367 1.92333 19.483C1.95706 19.5989 2.0133 19.7071 2.08884 19.8013C2.24139 19.9915 2.46327 20.1134 2.70567 20.1401C2.94807 20.1667 3.19114 20.096 3.3814 19.9435C3.57166 19.7909 3.69352 19.569 3.72019 19.3266C3.92088 17.54 4.77281 15.8899 6.11318 14.6916C7.45356 13.4934 9.18843 12.831 10.9863 12.831C12.7842 12.831 14.5191 13.4934 15.8594 14.6916C17.1998 15.8899 18.0518 17.54 18.2524 19.3266C18.2773 19.5512 18.3845 19.7586 18.5532 19.9088C18.722 20.0591 18.9405 20.1414 19.1664 20.1401H19.267C19.5065 20.1125 19.7255 19.9914 19.8762 19.803C20.0268 19.6147 20.097 19.3745 20.0713 19.1347C19.888 17.4861 19.2595 15.9184 18.2532 14.5997C17.2469 13.281 15.9007 12.2611 14.3589 11.6492ZM10.968 11.0003C10.245 11.0003 9.53813 10.7859 8.93692 10.3841C8.33571 9.98243 7.86712 9.41145 7.59041 8.74342C7.31371 8.07539 7.24131 7.34031 7.38237 6.63113C7.52344 5.92195 7.87163 5.27053 8.38292 4.75924C8.89421 4.24795 9.54563 3.89976 10.2548 3.7587C10.964 3.61763 11.6991 3.69003 12.3671 3.96674C13.0351 4.24345 13.6061 4.71203 14.0078 5.31325C14.4095 5.91446 14.624 6.62129 14.624 7.34436C14.624 8.31397 14.2388 9.24387 13.5532 9.92949C12.8675 10.6151 11.9376 11.0003 10.968 11.0003Z" fill="black" fill-opacity="0.7"/>
</svg>
