<svg width="20" height="20" viewBox="0 0 20 20" fill="none" xmlns="http://www.w3.org/2000/svg">
<path d="M11.4079 1.62939H4.8894C4.45719 1.62939 4.04269 1.80109 3.73707 2.1067C3.43146 2.41232 3.25977 2.82682 3.25977 3.25902V16.2961C3.25977 16.7283 3.43146 17.1428 3.73707 17.4484C4.04269 17.754 4.45719 17.9257 4.8894 17.9257H14.6672C15.0994 17.9257 15.5139 17.754 15.8195 17.4484C16.1251 17.1428 16.2968 16.7283 16.2968 16.2961V6.51828L11.4079 1.62939Z" stroke="black" stroke-opacity="0.7" stroke-width="1.62963" stroke-linecap="round" stroke-linejoin="round"/>
<path d="M13.0361 13.8521H6.51758" stroke="#00BB9D" stroke-opacity="0.7" stroke-width="1.62963" stroke-linecap="round" stroke-linejoin="round"/>
<path d="M13.0361 10.5928H6.51758" stroke="#00BB9D" stroke-opacity="0.7" stroke-width="1.62963" stroke-linecap="round" stroke-linejoin="round"/>
<path d="M8.14721 7.3335H7.33239H6.51758" stroke="#00BB9D" stroke-opacity="0.7" stroke-width="1.62963" stroke-linecap="round" stroke-linejoin="round"/>
<path d="M11.4082 1.62939V6.51828H16.2971" stroke="black" stroke-opacity="0.7" stroke-width="1.62963" stroke-linecap="round" stroke-linejoin="round"/>
</svg>
