<svg width="14" height="10" viewBox="0 0 14 10" fill="none" xmlns="http://www.w3.org/2000/svg">
<path d="M2.5009 7.08326L10.4926 7.08326L9.40923 8.15826C9.25231 8.31518 9.16416 8.52801 9.16416 8.74993C9.16416 8.97184 9.25231 9.18467 9.40923 9.34159C9.56615 9.49851 9.77898 9.58667 10.0009 9.58667C10.2228 9.58667 10.4356 9.49851 10.5926 9.34159L13.0926 6.84159C13.1684 6.76234 13.2279 6.66889 13.2676 6.56659C13.3509 6.36371 13.3509 6.13615 13.2676 5.93326C13.2279 5.83097 13.1684 5.73751 13.0926 5.65826L10.5926 3.15826C10.5151 3.08015 10.4229 3.01816 10.3214 2.97585C10.2198 2.93354 10.1109 2.91176 10.0009 2.91176C9.89089 2.91176 9.78197 2.93354 9.68042 2.97585C9.57887 3.01816 9.4867 3.08015 9.40923 3.15826C9.33113 3.23573 9.26913 3.3279 9.22682 3.42945C9.18452 3.531 9.16274 3.63992 9.16274 3.74993C9.16274 3.85994 9.18452 3.96886 9.22682 4.07041C9.26913 4.17196 9.33113 4.26412 9.40923 4.34159L10.4926 5.41659L2.5009 5.41659C2.27989 5.41659 2.06792 5.3288 1.91164 5.17252C1.75536 5.01624 1.66757 4.80427 1.66757 4.58326L1.66757 1.24993C1.66757 1.02891 1.57977 0.816952 1.42349 0.660671C1.26721 0.504391 1.05525 0.416594 0.834234 0.416594C0.61322 0.416594 0.401258 0.504391 0.244978 0.660671C0.0886973 0.816952 0.00090054 1.02891 0.000900521 1.24993L0.000900229 4.58326C0.000900171 5.2463 0.264292 5.88219 0.733133 6.35103C1.20197 6.81987 1.83786 7.08326 2.5009 7.08326V7.08326Z" fill="black" fill-opacity="0.35"/>
</svg>
