<svg width="16" height="9" viewBox="0 0 16 9" fill="none" xmlns="http://www.w3.org/2000/svg">
<path opacity="0.8" d="M10.5721 6.8575L10.5723 6.85742C10.8505 6.7331 11.091 6.56029 11.2936 6.33909C11.4961 6.11791 11.6539 5.8556 11.7674 5.5527C11.881 5.24922 11.9376 4.9174 11.9376 4.55767V3.44233C11.9376 3.08531 11.881 2.7549 11.7674 2.45148C11.654 2.14587 11.4961 1.88346 11.2935 1.66488C11.091 1.44374 10.8505 1.27097 10.5724 1.14668C10.296 1.02207 9.99469 0.96 9.669 0.96H8.35717C8.03145 0.96 7.72894 1.02208 7.45015 1.14665C7.17198 1.27095 6.93146 1.44373 6.72896 1.66489C6.52639 1.8834 6.36731 2.14571 6.2514 2.45121L6.25134 2.45137C6.13769 2.75482 6.08109 3.08527 6.08109 3.44233V4.55767C6.08109 4.9174 6.13767 5.24922 6.25134 5.5527L6.25144 5.55297C6.36737 5.85577 6.52644 6.11798 6.72887 6.33909C6.9314 6.56029 7.17194 6.7331 7.45015 6.85742L7.45045 6.85755C7.72917 6.97932 8.03157 7.04 8.35717 7.04H9.669C9.9946 7.04 10.2958 6.97932 10.5721 6.8575ZM10.7977 2.8897L10.7977 2.8897L10.798 2.89038C10.8582 3.05353 10.8887 3.23734 10.8887 3.44233V4.55767C10.8887 4.76265 10.8582 4.9479 10.7979 5.11388L10.7978 5.11418C10.7398 5.27769 10.6568 5.41807 10.549 5.5359C10.4412 5.65102 10.3117 5.74146 10.1601 5.80718C10.0116 5.86993 9.84565 5.90166 9.66155 5.90166H8.35717C8.17317 5.90166 8.00592 5.86997 7.85488 5.80719C7.70587 5.7415 7.57761 5.65109 7.46972 5.53591C7.36185 5.41804 7.27758 5.2776 7.21715 5.11404C7.15929 4.94799 7.13006 4.76268 7.13006 4.55767V3.44233C7.13006 3.23723 7.15931 3.0533 7.21715 2.89004C7.27762 2.72365 7.36189 2.58332 7.46958 2.46832L7.46988 2.46799C7.57776 2.35015 7.70592 2.25986 7.85472 2.19695L7.85472 2.19695L7.85505 2.19681C8.00604 2.13137 8.17323 2.09834 8.35717 2.09834H9.669C9.85039 2.09834 10.015 2.13134 10.1634 2.19672L10.1634 2.19672L10.1642 2.19704C10.3154 2.25995 10.4433 2.35015 10.5485 2.46766L10.5485 2.46766L10.5491 2.46832C10.6567 2.58323 10.7397 2.72344 10.7977 2.8897Z" fill="black" stroke="black" stroke-width="0.08"/>
<path opacity="0.8" d="M15.875 8.07503H15.8H12.5H12.425V8.00003V6.7683C12.425 6.69986 12.4322 6.62855 12.4464 6.55449L12.4466 6.55317L12.4466 6.55317C12.4627 6.4764 12.4868 6.4008 12.5188 6.32641C12.5512 6.25092 12.5926 6.17932 12.6427 6.11164L12.6434 6.11063L12.6434 6.11063C12.6965 6.04146 12.7595 5.98088 12.8321 5.92894C12.9074 5.8745 12.9929 5.83193 13.088 5.80076C13.1854 5.76883 13.2938 5.7535 13.4121 5.7535H14.8804C14.9577 5.7535 14.999 5.73412 15.0212 5.71052L15.0213 5.71048C15.0473 5.68281 15.066 5.63738 15.066 5.56217V5.26769C15.066 5.18814 15.0469 5.14145 15.0213 5.11426C14.9961 5.08758 14.9552 5.06868 14.8854 5.06868H12.7932H12.7182V4.99368V4.32788V4.25288H12.7932H14.8854C15.0022 4.25288 15.1096 4.26825 15.207 4.30015C15.3019 4.33125 15.3866 4.37379 15.4604 4.42831C15.5345 4.48017 15.5984 4.54072 15.6515 4.61002C15.7034 4.6776 15.7457 4.7492 15.7783 4.82479M15.875 8.07503L15.8512 5.05164C15.8511 5.05131 15.8511 5.05097 15.851 5.05064M15.875 8.07503V8.00003V7.33423V7.25923H15.8H13.2265V6.77418C13.231 6.74608 13.2369 6.71792 13.2442 6.68969C13.2505 6.66509 13.2596 6.6442 13.271 6.62638C13.2812 6.6126 13.2958 6.60023 13.317 6.58997C13.3346 6.58142 13.3646 6.57442 13.4121 6.57442H14.8854C14.9861 6.57442 15.0922 6.55666 15.2032 6.52244L15.2032 6.52244L15.2039 6.52221C15.32 6.48515 15.4274 6.42687 15.5261 6.34803L15.5261 6.34803L15.5267 6.3475C15.6275 6.2651 15.7098 6.16014 15.7741 6.03417L15.7073 6.00007M15.875 8.07503L15.7073 6.00007M15.7783 4.82479C15.8122 4.89795 15.8365 4.97327 15.851 5.05064M15.7783 4.82479C15.7781 4.82445 15.778 4.82412 15.7778 4.82379L15.7098 4.8554L15.7787 4.8258C15.7786 4.82546 15.7784 4.82512 15.7783 4.82479ZM15.851 5.05064C15.8668 5.12462 15.875 5.19533 15.875 5.26256V5.56217C15.875 5.74331 15.8426 5.9018 15.7739 6.03452L15.7073 6.00007M15.851 5.05064L15.7073 6.00007M15.7073 6.00007C15.6472 6.11786 15.5711 6.21432 15.4793 6.28944C15.3874 6.36284 15.288 6.41662 15.1811 6.45076L15.7073 6.00007ZM15.0759 5.76192C15.0341 5.8063 14.9689 5.8285 14.8804 5.8285H13.4121C13.3002 5.8285 13.1999 5.84301 13.1114 5.87203C13.0229 5.90105 12.9443 5.94032 12.8759 5.98982C12.809 6.03763 12.7514 6.09311 12.703 6.15627L15.0759 5.76192ZM15.0759 5.76192C15.1193 5.71582 15.141 5.64924 15.141 5.56217V5.26769C15.141 5.1772 15.1193 5.10892 15.0759 5.06282C15.0324 5.01673 14.9689 4.99368 14.8854 4.99368H12.8682L15.0759 5.76192Z" fill="black" stroke="black" stroke-width="0.15"/>
<path opacity="0.8" d="M5.55523 6.87718H5.59523V6.83718V5.77883V5.73883H5.55523H2.0595C1.94387 5.73883 1.85863 5.70513 1.79832 5.64191C1.73991 5.57543 1.70818 5.48035 1.70818 5.35142V2.49389C1.70818 2.35564 1.74047 2.25844 1.79831 2.19526C1.85585 2.13242 1.94072 2.09834 2.0595 2.09834H5.55523H5.59523V2.05834V1V0.96H5.55523H2.0595C1.88938 0.96 1.73572 0.983571 1.59906 1.03145C1.4637 1.07887 1.3431 1.14323 1.23759 1.22473C1.13514 1.30307 1.04668 1.39408 0.972317 1.49771C0.898488 1.6006 0.838552 1.70919 0.792607 1.82346C0.746927 1.93436 0.712643 2.04809 0.689781 2.16462L0.689776 2.16462L0.689656 2.16529C0.669428 2.27852 0.659219 2.38537 0.659219 2.48575V5.35142C0.659219 5.53629 0.680687 5.70429 0.724138 5.85504L0.724195 5.85523C0.767317 6.00207 0.824611 6.13304 0.896364 6.2478L0.896351 6.24781L0.896953 6.24872C0.970893 6.36011 1.05529 6.45657 1.15024 6.53785L1.15076 6.53829C1.24491 6.61611 1.34318 6.68028 1.44557 6.73061L1.44592 6.73078C1.55013 6.78075 1.65466 6.81838 1.75948 6.84351L1.75948 6.84353L1.76066 6.84377C1.8672 6.86594 1.96686 6.87718 2.0595 6.87718H5.55523Z" fill="black" stroke="black" stroke-width="0.08"/>
</svg>
