<svg width="14" height="14" viewBox="0 0 14 14" fill="none" xmlns="http://www.w3.org/2000/svg">
<path d="M9.62565 2.9166C9.11205 2.91619 8.608 3.05531 8.16732 3.3191C7.8478 2.58572 7.28671 1.98393 6.57747 1.61393C5.86822 1.24393 5.05363 1.12805 4.26935 1.28559C3.48506 1.44313 2.7784 1.86458 2.26705 2.47976C1.7557 3.09494 1.47052 3.86672 1.45898 4.6666V6.99993C1.45982 7.82644 1.75313 8.62599 2.28696 9.25698C2.82079 9.88797 3.5607 10.3097 4.37565 10.4474V12.2499C4.37565 12.4046 4.43711 12.553 4.54651 12.6624C4.6559 12.7718 4.80427 12.8333 4.95898 12.8333C5.11369 12.8333 5.26207 12.7718 5.37146 12.6624C5.48086 12.553 5.54232 12.4046 5.54232 12.2499V10.4474C6.13658 10.3443 6.69472 10.0913 7.16398 9.71243C7.37224 10.0467 7.64604 10.3353 7.96886 10.5609C8.29168 10.7864 8.65684 10.9443 9.04232 11.0249V12.2499C9.04232 12.4046 9.10378 12.553 9.21317 12.6624C9.32257 12.7718 9.47094 12.8333 9.62565 12.8333C9.78036 12.8333 9.92873 12.7718 10.0381 12.6624C10.1475 12.553 10.209 12.4046 10.209 12.2499V11.0249C10.8678 10.8905 11.4599 10.5325 11.8851 10.0116C12.3103 9.49076 12.5425 8.83898 12.5423 8.1666V5.83326C12.5423 5.05971 12.235 4.31785 11.688 3.77087C11.1411 3.22389 10.3992 2.9166 9.62565 2.9166ZM6.70898 5.83326V8.1666C6.71456 8.27799 6.72625 8.38899 6.74398 8.4991C6.43201 8.87066 6.01197 9.13573 5.54232 9.25743V7.58326C5.54232 7.42855 5.48086 7.28018 5.37146 7.17078C5.26207 7.06139 5.11369 6.99993 4.95898 6.99993C4.80427 6.99993 4.6559 7.06139 4.54651 7.17078C4.43711 7.28018 4.37565 7.42855 4.37565 7.58326V9.2516C3.87604 9.1226 3.43328 8.83163 3.11664 8.42422C2.79999 8.0168 2.62733 7.51592 2.62565 6.99993V4.6666C2.62413 4.20434 2.75994 3.75205 3.01586 3.3671C3.27178 2.98216 3.63628 2.6819 4.0631 2.50442C4.48993 2.32694 4.95986 2.28023 5.41327 2.37023C5.86668 2.46023 6.28314 2.68288 6.60982 3.00993C6.92561 3.32997 7.14059 3.7356 7.22815 4.1766C6.89095 4.66332 6.70987 5.24114 6.70898 5.83326ZM11.3757 8.1666C11.3746 8.52765 11.262 8.87955 11.0531 9.17405C10.8442 9.46855 10.5494 9.69125 10.209 9.8116V7.58326C10.209 7.42855 10.1475 7.28018 10.0381 7.17078C9.92873 7.06139 9.78036 6.99993 9.62565 6.99993C9.47094 6.99993 9.32257 7.06139 9.21317 7.17078C9.10378 7.28018 9.04232 7.42855 9.04232 7.58326V9.8116C8.70191 9.69125 8.40707 9.46855 8.1982 9.17405C7.98933 8.87955 7.87667 8.52765 7.87565 8.1666V5.83326C7.87565 5.36913 8.06003 4.92401 8.38821 4.59583C8.7164 4.26764 9.16152 4.08326 9.62565 4.08326C10.0898 4.08326 10.5349 4.26764 10.8631 4.59583C11.1913 4.92401 11.3757 5.36913 11.3757 5.83326V8.1666Z" fill="black" fill-opacity="0.8"/>
</svg>
