<svg width="20" height="11" viewBox="0 0 20 11" fill="none" xmlns="http://www.w3.org/2000/svg">
<g opacity="0.8">
<mask id="path-1-outside-1_1981_28064" maskUnits="userSpaceOnUse" x="3" y="2.33105" width="14" height="6" fill="black">
<rect fill="white" x="3" y="2.33105" width="14" height="6"/>
<path d="M7.62689 4.73055C7.62689 4.90282 7.60833 5.05671 7.57121 5.19221C7.53409 5.3277 7.48347 5.44772 7.41935 5.55224C7.35692 5.65483 7.28436 5.74291 7.20168 5.81646C7.11901 5.89002 7.03211 5.95099 6.94099 5.99938C6.85157 6.04584 6.76045 6.07971 6.66765 6.10101C6.57653 6.1223 6.49048 6.13294 6.40949 6.13294L7.78381 7.49469H6.76636L5.39457 6.13294H4.92128V5.37803H6.40949C6.49217 5.37029 6.56725 5.35093 6.63475 5.31996C6.70393 5.28705 6.76298 5.2435 6.81191 5.1893C6.86253 5.1351 6.90134 5.07026 6.92834 4.99477C6.95534 4.91734 6.96883 4.82927 6.96883 4.73055V4.25437C6.96883 4.21179 6.96377 4.17985 6.95365 4.15856C6.94521 4.13533 6.9334 4.11887 6.91822 4.1092C6.90472 4.09758 6.88953 4.09081 6.87266 4.08887C6.85747 4.08694 6.84313 4.08597 6.82963 4.08597H4.65805V7.49469H4V3.71141C4 3.65915 4.00844 3.60979 4.02531 3.56334C4.04218 3.51688 4.06496 3.47623 4.09365 3.44139C4.12402 3.40655 4.15945 3.37945 4.19995 3.36009C4.24044 3.34073 4.28431 3.33105 4.33156 3.33105H6.82963C6.97643 3.33105 7.10045 3.36203 7.20168 3.42397C7.30292 3.48397 7.38476 3.56043 7.44719 3.65334C7.51131 3.74432 7.55686 3.84304 7.58386 3.9495C7.61255 4.05596 7.62689 4.15565 7.62689 4.24856V4.73055Z"/>
<path d="M11.7931 7.11433C11.7931 7.16853 11.7846 7.21886 11.7677 7.26531C11.7509 7.31177 11.7273 7.35242 11.6969 7.38726C11.6682 7.42017 11.6336 7.4463 11.5931 7.46566C11.5526 7.48501 11.5087 7.49469 11.4615 7.49469H9.08744C9.0267 7.49469 8.96089 7.48695 8.89003 7.47146C8.82085 7.45404 8.75167 7.42791 8.68249 7.39307C8.61499 7.35823 8.55003 7.31371 8.4876 7.25951C8.42517 7.20337 8.36949 7.13659 8.32056 7.05916C8.27331 6.9798 8.23535 6.88882 8.20666 6.78623C8.17798 6.68171 8.16364 6.5646 8.16364 6.43491V4.39084C8.16364 4.32115 8.17039 4.24663 8.18388 4.16727C8.19907 4.08597 8.22185 4.00661 8.25222 3.92918C8.28259 3.84982 8.32224 3.77432 8.37118 3.7027C8.42011 3.63108 8.47832 3.56817 8.54581 3.51398C8.61499 3.45784 8.6943 3.41332 8.78373 3.38041C8.87315 3.34751 8.97439 3.33105 9.08744 3.33105H11.7627V4.08597H9.08744C9.00139 4.08597 8.93558 4.1121 8.89003 4.16436C8.84447 4.21663 8.82169 4.29405 8.82169 4.39664V6.43491C8.82169 6.53169 8.84447 6.60718 8.89003 6.66138C8.93727 6.71365 9.00308 6.73978 9.08744 6.73978H11.135V5.79323H9.38357V5.03251H11.4615C11.5087 5.03251 11.5526 5.04316 11.5931 5.06445C11.6336 5.08381 11.6682 5.11091 11.6969 5.14575C11.7273 5.18059 11.7509 5.22124 11.7677 5.2677C11.7846 5.31222 11.7931 5.36061 11.7931 5.41287V7.11433Z"/>
<path d="M15.9542 6.58009C15.9542 6.673 15.9398 6.77268 15.9111 6.87915C15.8841 6.98561 15.8386 7.08433 15.7745 7.1753C15.712 7.26628 15.6302 7.34274 15.529 7.40468C15.4277 7.46469 15.3037 7.49469 15.1569 7.49469H12.6588C12.6116 7.49469 12.5677 7.48501 12.5272 7.46566C12.4867 7.4463 12.4513 7.42017 12.4209 7.38726C12.3922 7.35242 12.3695 7.31177 12.3526 7.26531C12.3357 7.21886 12.3273 7.16853 12.3273 7.11433V3.71141C12.3273 3.65915 12.3357 3.60979 12.3526 3.56334C12.3695 3.51688 12.3922 3.47623 12.4209 3.44139C12.4513 3.40655 12.4867 3.37945 12.5272 3.36009C12.5677 3.34073 12.6116 3.33105 12.6588 3.33105H14.8608C14.9418 3.33105 15.0287 3.34751 15.1215 3.38041C15.2143 3.41332 15.3003 3.46655 15.3796 3.54011C15.4606 3.61173 15.5273 3.70561 15.5796 3.82175C15.6336 3.93789 15.6606 4.08016 15.6606 4.24856V4.39084C15.6606 4.5244 15.6412 4.66861 15.6024 4.82346C15.5635 4.97638 15.5011 5.12155 15.4151 5.25899C15.4893 5.31125 15.5585 5.37416 15.6226 5.44772C15.6884 5.52127 15.7458 5.60644 15.7947 5.70322C15.8436 5.80001 15.8825 5.90937 15.9111 6.03132C15.9398 6.15327 15.9542 6.2878 15.9542 6.43491V6.58009ZM15.2961 6.43491C15.2961 6.33619 15.2826 6.24812 15.2556 6.17069C15.2286 6.09133 15.1907 6.02358 15.1417 5.96744C15.0928 5.91131 15.0337 5.86872 14.9646 5.83969C14.8954 5.80872 14.8178 5.79323 14.7317 5.79323H13.2485V5.03251H14.4356C14.5216 5.03251 14.5992 5.018 14.6684 4.98896C14.7376 4.95799 14.7967 4.91444 14.8456 4.8583C14.8945 4.80217 14.9316 4.73539 14.957 4.65796C14.984 4.5786 14.9975 4.48956 14.9975 4.39084V4.24856C14.9975 4.14017 14.9519 4.08597 14.8608 4.08597H12.9853V6.73978H15.1569C15.1687 6.73978 15.1831 6.73881 15.1999 6.73687C15.2168 6.73494 15.232 6.72913 15.2455 6.71945C15.259 6.70978 15.2708 6.69332 15.2809 6.67009C15.291 6.64687 15.2961 6.61493 15.2961 6.57428V6.43491Z"/>
</mask>
<path d="M7.62689 4.73055C7.62689 4.90282 7.60833 5.05671 7.57121 5.19221C7.53409 5.3277 7.48347 5.44772 7.41935 5.55224C7.35692 5.65483 7.28436 5.74291 7.20168 5.81646C7.11901 5.89002 7.03211 5.95099 6.94099 5.99938C6.85157 6.04584 6.76045 6.07971 6.66765 6.10101C6.57653 6.1223 6.49048 6.13294 6.40949 6.13294L7.78381 7.49469H6.76636L5.39457 6.13294H4.92128V5.37803H6.40949C6.49217 5.37029 6.56725 5.35093 6.63475 5.31996C6.70393 5.28705 6.76298 5.2435 6.81191 5.1893C6.86253 5.1351 6.90134 5.07026 6.92834 4.99477C6.95534 4.91734 6.96883 4.82927 6.96883 4.73055V4.25437C6.96883 4.21179 6.96377 4.17985 6.95365 4.15856C6.94521 4.13533 6.9334 4.11887 6.91822 4.1092C6.90472 4.09758 6.88953 4.09081 6.87266 4.08887C6.85747 4.08694 6.84313 4.08597 6.82963 4.08597H4.65805V7.49469H4V3.71141C4 3.65915 4.00844 3.60979 4.02531 3.56334C4.04218 3.51688 4.06496 3.47623 4.09365 3.44139C4.12402 3.40655 4.15945 3.37945 4.19995 3.36009C4.24044 3.34073 4.28431 3.33105 4.33156 3.33105H6.82963C6.97643 3.33105 7.10045 3.36203 7.20168 3.42397C7.30292 3.48397 7.38476 3.56043 7.44719 3.65334C7.51131 3.74432 7.55686 3.84304 7.58386 3.9495C7.61255 4.05596 7.62689 4.15565 7.62689 4.24856V4.73055Z" fill="black"/>
<path d="M11.7931 7.11433C11.7931 7.16853 11.7846 7.21886 11.7677 7.26531C11.7509 7.31177 11.7273 7.35242 11.6969 7.38726C11.6682 7.42017 11.6336 7.4463 11.5931 7.46566C11.5526 7.48501 11.5087 7.49469 11.4615 7.49469H9.08744C9.0267 7.49469 8.96089 7.48695 8.89003 7.47146C8.82085 7.45404 8.75167 7.42791 8.68249 7.39307C8.61499 7.35823 8.55003 7.31371 8.4876 7.25951C8.42517 7.20337 8.36949 7.13659 8.32056 7.05916C8.27331 6.9798 8.23535 6.88882 8.20666 6.78623C8.17798 6.68171 8.16364 6.5646 8.16364 6.43491V4.39084C8.16364 4.32115 8.17039 4.24663 8.18388 4.16727C8.19907 4.08597 8.22185 4.00661 8.25222 3.92918C8.28259 3.84982 8.32224 3.77432 8.37118 3.7027C8.42011 3.63108 8.47832 3.56817 8.54581 3.51398C8.61499 3.45784 8.6943 3.41332 8.78373 3.38041C8.87315 3.34751 8.97439 3.33105 9.08744 3.33105H11.7627V4.08597H9.08744C9.00139 4.08597 8.93558 4.1121 8.89003 4.16436C8.84447 4.21663 8.82169 4.29405 8.82169 4.39664V6.43491C8.82169 6.53169 8.84447 6.60718 8.89003 6.66138C8.93727 6.71365 9.00308 6.73978 9.08744 6.73978H11.135V5.79323H9.38357V5.03251H11.4615C11.5087 5.03251 11.5526 5.04316 11.5931 5.06445C11.6336 5.08381 11.6682 5.11091 11.6969 5.14575C11.7273 5.18059 11.7509 5.22124 11.7677 5.2677C11.7846 5.31222 11.7931 5.36061 11.7931 5.41287V7.11433Z" fill="black"/>
<path d="M15.9542 6.58009C15.9542 6.673 15.9398 6.77268 15.9111 6.87915C15.8841 6.98561 15.8386 7.08433 15.7745 7.1753C15.712 7.26628 15.6302 7.34274 15.529 7.40468C15.4277 7.46469 15.3037 7.49469 15.1569 7.49469H12.6588C12.6116 7.49469 12.5677 7.48501 12.5272 7.46566C12.4867 7.4463 12.4513 7.42017 12.4209 7.38726C12.3922 7.35242 12.3695 7.31177 12.3526 7.26531C12.3357 7.21886 12.3273 7.16853 12.3273 7.11433V3.71141C12.3273 3.65915 12.3357 3.60979 12.3526 3.56334C12.3695 3.51688 12.3922 3.47623 12.4209 3.44139C12.4513 3.40655 12.4867 3.37945 12.5272 3.36009C12.5677 3.34073 12.6116 3.33105 12.6588 3.33105H14.8608C14.9418 3.33105 15.0287 3.34751 15.1215 3.38041C15.2143 3.41332 15.3003 3.46655 15.3796 3.54011C15.4606 3.61173 15.5273 3.70561 15.5796 3.82175C15.6336 3.93789 15.6606 4.08016 15.6606 4.24856V4.39084C15.6606 4.5244 15.6412 4.66861 15.6024 4.82346C15.5635 4.97638 15.5011 5.12155 15.4151 5.25899C15.4893 5.31125 15.5585 5.37416 15.6226 5.44772C15.6884 5.52127 15.7458 5.60644 15.7947 5.70322C15.8436 5.80001 15.8825 5.90937 15.9111 6.03132C15.9398 6.15327 15.9542 6.2878 15.9542 6.43491V6.58009ZM15.2961 6.43491C15.2961 6.33619 15.2826 6.24812 15.2556 6.17069C15.2286 6.09133 15.1907 6.02358 15.1417 5.96744C15.0928 5.91131 15.0337 5.86872 14.9646 5.83969C14.8954 5.80872 14.8178 5.79323 14.7317 5.79323H13.2485V5.03251H14.4356C14.5216 5.03251 14.5992 5.018 14.6684 4.98896C14.7376 4.95799 14.7967 4.91444 14.8456 4.8583C14.8945 4.80217 14.9316 4.73539 14.957 4.65796C14.984 4.5786 14.9975 4.48956 14.9975 4.39084V4.24856C14.9975 4.14017 14.9519 4.08597 14.8608 4.08597H12.9853V6.73978H15.1569C15.1687 6.73978 15.1831 6.73881 15.1999 6.73687C15.2168 6.73494 15.232 6.72913 15.2455 6.71945C15.259 6.70978 15.2708 6.69332 15.2809 6.67009C15.291 6.64687 15.2961 6.61493 15.2961 6.57428V6.43491Z" fill="black"/>
<path d="M7.62689 4.73055C7.62689 4.90282 7.60833 5.05671 7.57121 5.19221C7.53409 5.3277 7.48347 5.44772 7.41935 5.55224C7.35692 5.65483 7.28436 5.74291 7.20168 5.81646C7.11901 5.89002 7.03211 5.95099 6.94099 5.99938C6.85157 6.04584 6.76045 6.07971 6.66765 6.10101C6.57653 6.1223 6.49048 6.13294 6.40949 6.13294L7.78381 7.49469H6.76636L5.39457 6.13294H4.92128V5.37803H6.40949C6.49217 5.37029 6.56725 5.35093 6.63475 5.31996C6.70393 5.28705 6.76298 5.2435 6.81191 5.1893C6.86253 5.1351 6.90134 5.07026 6.92834 4.99477C6.95534 4.91734 6.96883 4.82927 6.96883 4.73055V4.25437C6.96883 4.21179 6.96377 4.17985 6.95365 4.15856C6.94521 4.13533 6.9334 4.11887 6.91822 4.1092C6.90472 4.09758 6.88953 4.09081 6.87266 4.08887C6.85747 4.08694 6.84313 4.08597 6.82963 4.08597H4.65805V7.49469H4V3.71141C4 3.65915 4.00844 3.60979 4.02531 3.56334C4.04218 3.51688 4.06496 3.47623 4.09365 3.44139C4.12402 3.40655 4.15945 3.37945 4.19995 3.36009C4.24044 3.34073 4.28431 3.33105 4.33156 3.33105H6.82963C6.97643 3.33105 7.10045 3.36203 7.20168 3.42397C7.30292 3.48397 7.38476 3.56043 7.44719 3.65334C7.51131 3.74432 7.55686 3.84304 7.58386 3.9495C7.61255 4.05596 7.62689 4.15565 7.62689 4.24856V4.73055Z" stroke="black" stroke-width="0.166545" mask="url(#path-1-outside-1_1981_28064)"/>
<path d="M11.7931 7.11433C11.7931 7.16853 11.7846 7.21886 11.7677 7.26531C11.7509 7.31177 11.7273 7.35242 11.6969 7.38726C11.6682 7.42017 11.6336 7.4463 11.5931 7.46566C11.5526 7.48501 11.5087 7.49469 11.4615 7.49469H9.08744C9.0267 7.49469 8.96089 7.48695 8.89003 7.47146C8.82085 7.45404 8.75167 7.42791 8.68249 7.39307C8.61499 7.35823 8.55003 7.31371 8.4876 7.25951C8.42517 7.20337 8.36949 7.13659 8.32056 7.05916C8.27331 6.9798 8.23535 6.88882 8.20666 6.78623C8.17798 6.68171 8.16364 6.5646 8.16364 6.43491V4.39084C8.16364 4.32115 8.17039 4.24663 8.18388 4.16727C8.19907 4.08597 8.22185 4.00661 8.25222 3.92918C8.28259 3.84982 8.32224 3.77432 8.37118 3.7027C8.42011 3.63108 8.47832 3.56817 8.54581 3.51398C8.61499 3.45784 8.6943 3.41332 8.78373 3.38041C8.87315 3.34751 8.97439 3.33105 9.08744 3.33105H11.7627V4.08597H9.08744C9.00139 4.08597 8.93558 4.1121 8.89003 4.16436C8.84447 4.21663 8.82169 4.29405 8.82169 4.39664V6.43491C8.82169 6.53169 8.84447 6.60718 8.89003 6.66138C8.93727 6.71365 9.00308 6.73978 9.08744 6.73978H11.135V5.79323H9.38357V5.03251H11.4615C11.5087 5.03251 11.5526 5.04316 11.5931 5.06445C11.6336 5.08381 11.6682 5.11091 11.6969 5.14575C11.7273 5.18059 11.7509 5.22124 11.7677 5.2677C11.7846 5.31222 11.7931 5.36061 11.7931 5.41287V7.11433Z" stroke="black" stroke-width="0.166545" mask="url(#path-1-outside-1_1981_28064)"/>
<path d="M15.9542 6.58009C15.9542 6.673 15.9398 6.77268 15.9111 6.87915C15.8841 6.98561 15.8386 7.08433 15.7745 7.1753C15.712 7.26628 15.6302 7.34274 15.529 7.40468C15.4277 7.46469 15.3037 7.49469 15.1569 7.49469H12.6588C12.6116 7.49469 12.5677 7.48501 12.5272 7.46566C12.4867 7.4463 12.4513 7.42017 12.4209 7.38726C12.3922 7.35242 12.3695 7.31177 12.3526 7.26531C12.3357 7.21886 12.3273 7.16853 12.3273 7.11433V3.71141C12.3273 3.65915 12.3357 3.60979 12.3526 3.56334C12.3695 3.51688 12.3922 3.47623 12.4209 3.44139C12.4513 3.40655 12.4867 3.37945 12.5272 3.36009C12.5677 3.34073 12.6116 3.33105 12.6588 3.33105H14.8608C14.9418 3.33105 15.0287 3.34751 15.1215 3.38041C15.2143 3.41332 15.3003 3.46655 15.3796 3.54011C15.4606 3.61173 15.5273 3.70561 15.5796 3.82175C15.6336 3.93789 15.6606 4.08016 15.6606 4.24856V4.39084C15.6606 4.5244 15.6412 4.66861 15.6024 4.82346C15.5635 4.97638 15.5011 5.12155 15.4151 5.25899C15.4893 5.31125 15.5585 5.37416 15.6226 5.44772C15.6884 5.52127 15.7458 5.60644 15.7947 5.70322C15.8436 5.80001 15.8825 5.90937 15.9111 6.03132C15.9398 6.15327 15.9542 6.2878 15.9542 6.43491V6.58009ZM15.2961 6.43491C15.2961 6.33619 15.2826 6.24812 15.2556 6.17069C15.2286 6.09133 15.1907 6.02358 15.1417 5.96744C15.0928 5.91131 15.0337 5.86872 14.9646 5.83969C14.8954 5.80872 14.8178 5.79323 14.7317 5.79323H13.2485V5.03251H14.4356C14.5216 5.03251 14.5992 5.018 14.6684 4.98896C14.7376 4.95799 14.7967 4.91444 14.8456 4.8583C14.8945 4.80217 14.9316 4.73539 14.957 4.65796C14.984 4.5786 14.9975 4.48956 14.9975 4.39084V4.24856C14.9975 4.14017 14.9519 4.08597 14.8608 4.08597H12.9853V6.73978H15.1569C15.1687 6.73978 15.1831 6.73881 15.1999 6.73687C15.2168 6.73494 15.232 6.72913 15.2455 6.71945C15.259 6.70978 15.2708 6.69332 15.2809 6.67009C15.291 6.64687 15.2961 6.61493 15.2961 6.57428V6.43491Z" stroke="black" stroke-width="0.166545" mask="url(#path-1-outside-1_1981_28064)"/>
</g>
<rect opacity="0.8" x="0.575" y="0.575" width="18.85" height="9.85" rx="4.83773" stroke="black" stroke-width="1.15"/>
</svg>
