<svg width="20" height="11" viewBox="0 0 20 11" fill="none" xmlns="http://www.w3.org/2000/svg">
<path opacity="0.8" d="M14.5865 0.574951H5.41195C2.74014 0.574951 0.574219 2.74088 0.574219 5.41268V5.58722C0.574219 8.25903 2.74014 10.425 5.41195 10.425H14.5865C17.2583 10.425 19.4242 8.25903 19.4242 5.58722V5.41268C19.4242 2.74088 17.2583 0.574951 14.5865 0.574951Z" stroke="black" stroke-width="1.15"/>
<mask id="mask0_2204_12631" style="mask-type:alpha" maskUnits="userSpaceOnUse" x="3" y="2" width="14" height="7">
<g opacity="0.8">
<path opacity="0.8" d="M17 2.3999H3V8.3999H17V2.3999Z" fill="white"/>
<path opacity="0.8" d="M7.68329 6.33569C7.68329 6.48461 7.66615 6.61902 7.63188 6.73893C7.59933 6.8569 7.55563 6.96133 7.5008 7.05223C7.44596 7.14313 7.3817 7.22049 7.30802 7.28431C7.23434 7.34813 7.15808 7.40035 7.07926 7.44096C7.00044 7.48158 6.9199 7.51155 6.83765 7.53089C6.75711 7.55023 6.68086 7.5599 6.60889 7.5599H4.03084V6.80565H6.60889C6.73741 6.80565 6.83679 6.7631 6.90705 6.67801C6.97902 6.59291 7.015 6.47881 7.015 6.33569C7.015 6.26607 7.00558 6.20225 6.98673 6.14423C6.96788 6.08621 6.94046 6.03592 6.90448 5.99338C6.87021 5.95083 6.82737 5.91795 6.77596 5.89474C6.72627 5.87153 6.67058 5.85993 6.60889 5.85993H5.07183C4.96388 5.85993 4.84735 5.83866 4.72226 5.79611C4.59717 5.75163 4.48065 5.68104 4.3727 5.58434C4.26646 5.48764 4.17735 5.36096 4.10538 5.20431C4.03513 5.04766 4 4.85619 4 4.62992C4 4.40364 4.03513 4.21314 4.10538 4.05842C4.17735 3.90177 4.26646 3.7751 4.3727 3.6784C4.48065 3.57976 4.59717 3.50917 4.72226 3.46662C4.84735 3.42214 4.96388 3.3999 5.07183 3.3999H7.34658V4.15416H5.07183C4.94503 4.15416 4.84564 4.19767 4.77367 4.2847C4.70341 4.37173 4.66829 4.4868 4.66829 4.62992C4.66829 4.77497 4.70341 4.89004 4.77367 4.97513C4.84564 5.05829 4.94503 5.09987 5.07183 5.09987H6.61403C6.686 5.10181 6.76225 5.11341 6.84279 5.13469C6.92333 5.15403 7.00301 5.18497 7.08183 5.22752C7.16237 5.27007 7.23862 5.32422 7.31059 5.38997C7.38256 5.45379 7.44596 5.53115 7.5008 5.62205C7.55734 5.71295 7.6019 5.81738 7.63445 5.93536C7.66701 6.05333 7.68329 6.18677 7.68329 6.33569Z" fill="black"/>
<path opacity="0.8" d="M11.6859 7.5599H11.0176V6.53876H8.66829V7.5599H8V5.4799C8 5.17627 8.04627 4.89681 8.1388 4.64152C8.23133 4.38623 8.35985 4.16673 8.52435 3.983C8.68885 3.79927 8.88334 3.65616 9.10781 3.55365C9.33229 3.45115 9.57733 3.3999 9.84293 3.3999H11.3491C11.3954 3.3999 11.4391 3.40957 11.4802 3.42891C11.5214 3.44825 11.5573 3.47533 11.5882 3.51014C11.619 3.54495 11.643 3.58556 11.6602 3.63198C11.6773 3.6784 11.6859 3.72771 11.6859 3.77993V7.5599ZM8.66829 5.7845H11.0176V4.15416H9.84293C9.82237 4.15416 9.77867 4.15802 9.71184 4.16576C9.64673 4.17156 9.57047 4.188 9.48308 4.21508C9.39741 4.24215 9.30659 4.28373 9.21063 4.33982C9.11467 4.3959 9.02642 4.47326 8.94588 4.5719C8.86535 4.67053 8.79852 4.7943 8.7454 4.94322C8.69399 5.0902 8.66829 5.2691 8.66829 5.4799V5.7845Z" fill="black"/>
<path opacity="0.8" d="M15.7907 4.79817C15.7907 4.9703 15.7719 5.12405 15.7342 5.25943C15.6965 5.39481 15.6451 5.51471 15.58 5.61915C15.5166 5.72165 15.4429 5.80965 15.3589 5.88314C15.275 5.95663 15.1867 6.01755 15.0942 6.0659C15.0034 6.11232 14.9108 6.14616 14.8166 6.16743C14.7241 6.18871 14.6367 6.19934 14.5544 6.19934L15.9501 7.5599H14.9168L13.5237 6.19934H13.0431V5.44509H14.5544C14.6384 5.43735 14.7146 5.41801 14.7832 5.38707C14.8534 5.35419 14.9134 5.31068 14.9631 5.25653C15.0145 5.20238 15.0539 5.13759 15.0813 5.06216C15.1087 4.9848 15.1225 4.89681 15.1225 4.79817V4.32241C15.1225 4.27987 15.1173 4.24795 15.107 4.22668C15.0985 4.20347 15.0865 4.18703 15.071 4.17736C15.0573 4.16576 15.0419 4.15899 15.0248 4.15706C15.0094 4.15512 14.9948 4.15416 14.9811 4.15416H12.7757V7.5599H12.1074V3.77993C12.1074 3.72771 12.116 3.6784 12.1332 3.63198C12.1503 3.58556 12.1734 3.54495 12.2026 3.51014C12.2334 3.47533 12.2694 3.44825 12.3105 3.42891C12.3516 3.40957 12.3962 3.3999 12.4442 3.3999H14.9811C15.1302 3.3999 15.2561 3.43085 15.3589 3.49273C15.4617 3.55269 15.5448 3.62908 15.6082 3.72191C15.6734 3.81281 15.7196 3.91144 15.747 4.01781C15.7762 4.12418 15.7907 4.22378 15.7907 4.31661V4.79817Z" fill="black"/>
</g>
</mask>
<g mask="url(#mask0_2204_12631)">
<path opacity="0.8" d="M7.68329 6.33569C7.68329 6.48461 7.66615 6.61902 7.63188 6.73893C7.59933 6.8569 7.55563 6.96133 7.5008 7.05223C7.44596 7.14313 7.3817 7.22049 7.30802 7.28431C7.23434 7.34813 7.15808 7.40035 7.07926 7.44096C7.00044 7.48158 6.9199 7.51155 6.83765 7.53089C6.75711 7.55023 6.68086 7.5599 6.60889 7.5599H4.03084V6.80565H6.60889C6.73741 6.80565 6.83679 6.7631 6.90705 6.67801C6.97902 6.59291 7.015 6.47881 7.015 6.33569C7.015 6.26607 7.00558 6.20225 6.98673 6.14423C6.96788 6.08621 6.94046 6.03592 6.90448 5.99338C6.87021 5.95083 6.82737 5.91795 6.77596 5.89474C6.72627 5.87153 6.67058 5.85993 6.60889 5.85993H5.07183C4.96388 5.85993 4.84735 5.83866 4.72226 5.79611C4.59717 5.75163 4.48065 5.68104 4.3727 5.58434C4.26646 5.48764 4.17735 5.36096 4.10538 5.20431C4.03513 5.04766 4 4.85619 4 4.62992C4 4.40364 4.03513 4.21314 4.10538 4.05842C4.17735 3.90177 4.26646 3.7751 4.3727 3.6784C4.48065 3.57976 4.59717 3.50917 4.72226 3.46662C4.84735 3.42214 4.96388 3.3999 5.07183 3.3999H7.34658V4.15416H5.07183C4.94503 4.15416 4.84564 4.19767 4.77367 4.2847C4.70341 4.37173 4.66829 4.4868 4.66829 4.62992C4.66829 4.77497 4.70341 4.89004 4.77367 4.97513C4.84564 5.05829 4.94503 5.09987 5.07183 5.09987H6.61403C6.686 5.10181 6.76225 5.11341 6.84279 5.13469C6.92333 5.15403 7.00301 5.18497 7.08183 5.22752C7.16237 5.27007 7.23862 5.32422 7.31059 5.38997C7.38256 5.45379 7.44596 5.53115 7.5008 5.62205C7.55734 5.71295 7.6019 5.81738 7.63445 5.93536C7.66701 6.05333 7.68329 6.18677 7.68329 6.33569Z" fill="black"/>
<path opacity="0.8" d="M11.6859 7.5599H11.0176V6.53876H8.66829V7.5599H8V5.4799C8 5.17627 8.04627 4.89681 8.1388 4.64152C8.23133 4.38623 8.35985 4.16673 8.52435 3.983C8.68885 3.79927 8.88334 3.65616 9.10781 3.55365C9.33229 3.45115 9.57733 3.3999 9.84293 3.3999H11.3491C11.3954 3.3999 11.4391 3.40957 11.4802 3.42891C11.5214 3.44825 11.5573 3.47533 11.5882 3.51014C11.619 3.54495 11.643 3.58556 11.6602 3.63198C11.6773 3.6784 11.6859 3.72771 11.6859 3.77993V7.5599ZM8.66829 5.7845H11.0176V4.15416H9.84293C9.82237 4.15416 9.77867 4.15802 9.71184 4.16576C9.64673 4.17156 9.57047 4.188 9.48308 4.21508C9.39741 4.24215 9.30659 4.28373 9.21063 4.33982C9.11467 4.3959 9.02642 4.47326 8.94588 4.5719C8.86535 4.67053 8.79852 4.7943 8.7454 4.94322C8.69399 5.0902 8.66829 5.2691 8.66829 5.4799V5.7845Z" fill="black"/>
<path opacity="0.8" d="M15.7907 4.79817C15.7907 4.9703 15.7719 5.12405 15.7342 5.25943C15.6965 5.39481 15.6451 5.51471 15.58 5.61915C15.5166 5.72165 15.4429 5.80965 15.3589 5.88314C15.275 5.95663 15.1867 6.01755 15.0942 6.0659C15.0034 6.11232 14.9108 6.14616 14.8166 6.16743C14.7241 6.18871 14.6367 6.19934 14.5544 6.19934L15.9501 7.5599H14.9168L13.5237 6.19934H13.0431V5.44509H14.5544C14.6384 5.43735 14.7146 5.41801 14.7832 5.38707C14.8534 5.35419 14.9134 5.31068 14.9631 5.25653C15.0145 5.20238 15.0539 5.13759 15.0813 5.06216C15.1087 4.9848 15.1225 4.89681 15.1225 4.79817V4.32241C15.1225 4.27987 15.1173 4.24795 15.107 4.22668C15.0985 4.20347 15.0865 4.18703 15.071 4.17736C15.0573 4.16576 15.0419 4.15899 15.0248 4.15706C15.0094 4.15512 14.9948 4.15416 14.9811 4.15416H12.7757V7.5599H12.1074V3.77993C12.1074 3.72771 12.116 3.6784 12.1332 3.63198C12.1503 3.58556 12.1734 3.54495 12.2026 3.51014C12.2334 3.47533 12.2694 3.44825 12.3105 3.42891C12.3516 3.40957 12.3962 3.3999 12.4442 3.3999H14.9811C15.1302 3.3999 15.2561 3.43085 15.3589 3.49273C15.4617 3.55269 15.5448 3.62908 15.6082 3.72191C15.6734 3.81281 15.7196 3.91144 15.747 4.01781C15.7762 4.12418 15.7907 4.22378 15.7907 4.31661V4.79817Z" fill="black"/>
<path d="M7.68329 6.33569C7.68329 6.48461 7.66615 6.61902 7.63188 6.73893C7.59933 6.8569 7.55563 6.96133 7.5008 7.05223C7.44596 7.14313 7.3817 7.22049 7.30802 7.28431C7.23434 7.34813 7.15808 7.40035 7.07926 7.44096C7.00044 7.48158 6.9199 7.51155 6.83765 7.53089C6.75711 7.55023 6.68086 7.5599 6.60889 7.5599H4.03084V6.80565H6.60889C6.73741 6.80565 6.83679 6.7631 6.90705 6.67801C6.97902 6.59291 7.015 6.47881 7.015 6.33569C7.015 6.26607 7.00558 6.20225 6.98673 6.14423C6.96788 6.08621 6.94046 6.03592 6.90448 5.99338C6.87021 5.95083 6.82737 5.91795 6.77596 5.89474C6.72627 5.87153 6.67058 5.85993 6.60889 5.85993H5.07183C4.96388 5.85993 4.84735 5.83866 4.72226 5.79611C4.59717 5.75163 4.48065 5.68104 4.3727 5.58434C4.26646 5.48764 4.17735 5.36096 4.10538 5.20431C4.03513 5.04766 4 4.85619 4 4.62992C4 4.40364 4.03513 4.21314 4.10538 4.05842C4.17735 3.90177 4.26646 3.7751 4.3727 3.6784C4.48065 3.57976 4.59717 3.50917 4.72226 3.46662C4.84735 3.42214 4.96388 3.3999 5.07183 3.3999H7.34658V4.15416H5.07183C4.94503 4.15416 4.84564 4.19767 4.77367 4.2847C4.70341 4.37173 4.66829 4.4868 4.66829 4.62992C4.66829 4.77497 4.70341 4.89004 4.77367 4.97513C4.84564 5.05829 4.94503 5.09987 5.07183 5.09987H6.61403C6.686 5.10181 6.76225 5.11341 6.84279 5.13469C6.92333 5.15403 7.00301 5.18497 7.08183 5.22752C7.16237 5.27007 7.23862 5.32422 7.31059 5.38997C7.38256 5.45379 7.44596 5.53115 7.5008 5.62205C7.55734 5.71295 7.6019 5.81738 7.63445 5.93536C7.66701 6.05333 7.68329 6.18677 7.68329 6.33569Z" fill="black" stroke="black" stroke-width="0.16"/>
<path d="M11.6859 7.5599H11.0176V6.53876H8.66829V7.5599H8V5.4799C8 5.17627 8.04627 4.89681 8.1388 4.64152C8.23133 4.38623 8.35985 4.16673 8.52435 3.983C8.68885 3.79927 8.88334 3.65616 9.10781 3.55365C9.33229 3.45115 9.57733 3.3999 9.84293 3.3999H11.3491C11.3954 3.3999 11.4391 3.40957 11.4802 3.42891C11.5214 3.44825 11.5573 3.47533 11.5882 3.51014C11.619 3.54495 11.643 3.58556 11.6602 3.63198C11.6773 3.6784 11.6859 3.72771 11.6859 3.77993V7.5599ZM8.66829 5.7845H11.0176V4.15416H9.84293C9.82237 4.15416 9.77867 4.15802 9.71184 4.16576C9.64673 4.17156 9.57047 4.188 9.48308 4.21508C9.39741 4.24215 9.30659 4.28373 9.21063 4.33982C9.11467 4.3959 9.02642 4.47326 8.94588 4.5719C8.86535 4.67053 8.79852 4.7943 8.7454 4.94322C8.69399 5.0902 8.66829 5.2691 8.66829 5.4799V5.7845Z" fill="black" stroke="black" stroke-width="0.16"/>
<path d="M15.7907 4.79817C15.7907 4.9703 15.7719 5.12405 15.7342 5.25943C15.6965 5.39481 15.6451 5.51471 15.58 5.61915C15.5166 5.72165 15.4429 5.80965 15.3589 5.88314C15.275 5.95663 15.1867 6.01755 15.0942 6.0659C15.0034 6.11232 14.9108 6.14616 14.8166 6.16743C14.7241 6.18871 14.6367 6.19934 14.5544 6.19934L15.9501 7.5599H14.9168L13.5237 6.19934H13.0431V5.44509H14.5544C14.6384 5.43735 14.7146 5.41801 14.7832 5.38707C14.8534 5.35419 14.9134 5.31068 14.9631 5.25653C15.0145 5.20238 15.0539 5.13759 15.0813 5.06216C15.1087 4.9848 15.1225 4.89681 15.1225 4.79817V4.32241C15.1225 4.27987 15.1173 4.24795 15.107 4.22668C15.0985 4.20347 15.0865 4.18703 15.071 4.17736C15.0573 4.16576 15.0419 4.15899 15.0248 4.15706C15.0094 4.15512 14.9948 4.15416 14.9811 4.15416H12.7757V7.5599H12.1074V3.77993C12.1074 3.72771 12.116 3.6784 12.1332 3.63198C12.1503 3.58556 12.1734 3.54495 12.2026 3.51014C12.2334 3.47533 12.2694 3.44825 12.3105 3.42891C12.3516 3.40957 12.3962 3.3999 12.4442 3.3999H14.9811C15.1302 3.3999 15.2561 3.43085 15.3589 3.49273C15.4617 3.55269 15.5448 3.62908 15.6082 3.72191C15.6734 3.81281 15.7196 3.91144 15.747 4.01781C15.7762 4.12418 15.7907 4.22378 15.7907 4.31661V4.79817Z" fill="black" stroke="black" stroke-width="0.16"/>
</g>
</svg>
