<svg width="14" height="14" viewBox="0 0 14 14" fill="none" xmlns="http://www.w3.org/2000/svg">
<path d="M2.11138 10.0801C2.16862 10.224 2.28068 10.3392 2.42289 10.4005C2.56511 10.4617 2.72583 10.464 2.86971 10.4067C3.01359 10.3495 3.12884 10.2375 3.1901 10.0952C3.25136 9.95302 3.25362 9.79229 3.19638 9.64841L2.54305 8.00341L6.41638 7.14591V9.91675C6.41638 10.0715 6.47784 10.2198 6.58723 10.3292C6.69663 10.4386 6.845 10.5001 6.99971 10.5001C7.15442 10.5001 7.3028 10.4386 7.41219 10.3292C7.52159 10.2198 7.58305 10.0715 7.58305 9.91675V7.14591L11.4564 8.00341L10.803 9.64841C10.7746 9.71965 10.7605 9.79579 10.7616 9.87247C10.7626 9.94916 10.7788 10.0249 10.8091 10.0953C10.8395 10.1658 10.8834 10.2295 10.9384 10.283C10.9934 10.3364 11.0584 10.3785 11.1297 10.4067C11.1984 10.4339 11.2717 10.4478 11.3455 10.4476C11.4624 10.4477 11.5765 10.4127 11.6733 10.3472C11.77 10.2817 11.8448 10.1886 11.888 10.0801L12.7922 7.79925C12.8232 7.72036 12.8367 7.63565 12.8317 7.55103C12.8266 7.46641 12.8032 7.3839 12.763 7.30925C12.7241 7.23487 12.6695 7.16979 12.603 7.11844C12.5366 7.0671 12.4599 7.0307 12.378 7.01175L10.4997 6.59758V4.08341C10.4997 3.9287 10.4383 3.78033 10.3289 3.67094C10.2195 3.56154 10.0711 3.50008 9.91638 3.50008H8.74971V1.75008C8.74971 1.59537 8.68826 1.447 8.57886 1.3376C8.46946 1.22821 8.32109 1.16675 8.16638 1.16675H5.83305C5.67834 1.16675 5.52996 1.22821 5.42057 1.3376C5.31117 1.447 5.24971 1.59537 5.24971 1.75008V3.50008H4.08305C3.92834 3.50008 3.77996 3.56154 3.67057 3.67094C3.56117 3.78033 3.49971 3.9287 3.49971 4.08341V6.59758L1.62138 7.00008C1.53958 7.01904 1.46283 7.05543 1.39638 7.10677C1.32994 7.15812 1.27536 7.2232 1.23638 7.29758C1.19621 7.37223 1.17278 7.45474 1.16775 7.53936C1.16271 7.62399 1.17618 7.70869 1.20721 7.78758L2.11138 10.0801ZM6.41638 2.33341H7.58305V3.50008H6.41638V2.33341ZM4.66638 4.66675H9.33305V6.33508L7.12805 5.83341H7.06971H6.99971H6.92971H6.87138L4.66638 6.33508V4.66675ZM12.0805 11.2467C11.8759 11.3095 11.6799 11.3977 11.4972 11.5092C11.3114 11.6179 11.1 11.6752 10.8847 11.6752C10.6694 11.6752 10.458 11.6179 10.2722 11.5092C9.86812 11.2813 9.41201 11.1615 8.94805 11.1615C8.48408 11.1615 8.02798 11.2813 7.62388 11.5092C7.4355 11.6167 7.22239 11.6731 7.00555 11.6731C6.7887 11.6731 6.57559 11.6167 6.38721 11.5092C5.98276 11.2824 5.52679 11.1632 5.06305 11.1632C4.5993 11.1632 4.14334 11.2824 3.73888 11.5092C3.55305 11.6179 3.34165 11.6752 3.12638 11.6752C2.91111 11.6752 2.69971 11.6179 2.51388 11.5092C2.3312 11.3977 2.13522 11.3095 1.93055 11.2467C1.85293 11.2192 1.77035 11.2083 1.68824 11.2149C1.60613 11.2215 1.52635 11.2455 1.45416 11.2852C1.38197 11.3248 1.319 11.3794 1.2694 11.4451C1.21979 11.5109 1.18469 11.5864 1.16638 11.6667C1.12283 11.8145 1.13948 11.9735 1.2127 12.109C1.28592 12.2445 1.40977 12.3455 1.55721 12.3901C1.67467 12.4219 1.78674 12.4711 1.88971 12.5359C2.24363 12.7436 2.64604 12.8542 3.05638 12.8567C3.48256 12.8568 3.90118 12.7441 4.26971 12.5301C4.49837 12.4039 4.75524 12.3378 5.01638 12.3378C5.27751 12.3378 5.53439 12.4039 5.76305 12.5301C6.12897 12.7393 6.54319 12.8494 6.96471 12.8494C7.38624 12.8494 7.80046 12.7393 8.16638 12.5301C8.39503 12.4039 8.65191 12.3378 8.91305 12.3378C9.17418 12.3378 9.43106 12.4039 9.65971 12.5301C10.0213 12.7459 10.4345 12.8598 10.8555 12.8598C11.2766 12.8598 11.6898 12.7459 12.0514 12.5301C12.1544 12.4652 12.2664 12.4161 12.3839 12.3842C12.4615 12.3685 12.5351 12.3372 12.6003 12.2921C12.6654 12.247 12.7206 12.1892 12.7627 12.122C12.8047 12.0549 12.8326 11.9799 12.8447 11.9016C12.8568 11.8234 12.8528 11.7434 12.833 11.6667C12.8145 11.5878 12.7797 11.5136 12.7309 11.4488C12.6821 11.3841 12.6203 11.3303 12.5495 11.2907C12.4786 11.2512 12.4004 11.2269 12.3196 11.2193C12.2389 11.2117 12.1575 11.2211 12.0805 11.2467Z" fill="black" fill-opacity="0.8"/>
</svg>
