<svg width="18" height="11" viewBox="0 0 18 11" fill="none" xmlns="http://www.w3.org/2000/svg">
<path opacity="0.8" d="M4.99448 7.64885V7.61316V6.83668V6.80099H5.03016H7.55135C7.66768 6.80099 7.75385 6.76104 7.81485 6.68325L7.81511 6.68292C7.87901 6.60339 7.91282 6.49462 7.91282 6.35287C7.91282 6.28425 7.904 6.22215 7.88676 6.16629C7.8695 6.11038 7.84467 6.06274 7.8126 6.02282L7.81207 6.02216L7.81208 6.02216C7.78204 5.9829 7.74463 5.95265 7.69942 5.93116L7.69899 5.93096C7.65583 5.90974 7.60685 5.89878 7.55135 5.89878H6.04819C5.93769 5.89878 5.81964 5.87587 5.6943 5.83099L5.69382 5.83082C5.56658 5.78318 5.44864 5.70779 5.34 5.60534L5.33979 5.60515C5.23182 5.50169 5.14221 5.36708 5.07035 5.20243L5.07023 5.20214L5.07023 5.20214C4.99913 5.03525 4.96431 4.83308 4.96431 4.59683C4.96431 4.3606 4.99912 4.15935 5.07029 3.99436L5.07035 3.99422C5.14221 3.82958 5.2318 3.69497 5.33976 3.59152M4.99448 7.64885L7.78009 5.11648M4.99448 7.64885H5.03016H7.55135C7.6251 7.64885 7.70262 7.63842 7.78381 7.6179L7.77507 7.5833L4.99448 7.64885ZM5.33976 3.59152C5.44843 3.48701 5.56652 3.41145 5.69406 3.36574C5.81939 3.31885 5.93754 3.29488 6.04819 3.29488H8.27277H8.30846V3.33057V4.10705V4.14274H8.27277H6.04819C5.9341 4.14274 5.84775 4.18329 5.7848 4.26332C5.72224 4.345 5.68924 4.45504 5.68924 4.59683C5.68924 4.74069 5.72227 4.85042 5.78444 4.92987C5.84716 5.00598 5.93358 5.04495 6.04819 5.04495H7.55638H7.55739L7.55739 5.04496C7.63096 5.04704 7.70828 5.05949 7.78925 5.08198M5.33976 3.59152C5.33976 3.59153 5.33975 3.59154 5.33974 3.59155L5.36448 3.61727L5.33979 3.5915C5.33978 3.59151 5.33977 3.59151 5.33976 3.59152ZM7.78925 5.08198C7.78938 5.08202 7.78952 5.08205 7.78966 5.08209L7.78009 5.11648M7.78925 5.08198C7.78911 5.08194 7.78898 5.08191 7.78884 5.08188L7.78009 5.11648M7.78925 5.08198C7.8712 5.10274 7.95191 5.13581 8.03135 5.18093M7.78009 5.11648C7.85886 5.13638 7.93678 5.16824 8.01386 5.21204M8.03135 5.18093C8.0313 5.18091 8.03126 5.18088 8.03121 5.18085L8.01386 5.21204M8.03135 5.18093C8.11289 5.2263 8.18981 5.28385 8.26213 5.35338M8.03135 5.18093C8.0314 5.18096 8.03145 5.18099 8.0315 5.18101L8.01386 5.21204M8.01386 5.21204L8.26213 5.35338M8.26213 5.35338C8.26206 5.35332 8.262 5.35326 8.26193 5.3532L8.23758 5.37928L8.26232 5.35356C8.26225 5.3535 8.26219 5.35344 8.26213 5.35338ZM11.5678 6.24475L12.877 7.58826L12.936 7.64885H12.8514H11.8409H11.8259L11.8154 7.63805L10.4635 6.2482H10.0085H9.97281V6.21251V5.43603V5.40034H10.0085H11.4848C11.5624 5.39263 11.6323 5.37379 11.6947 5.34417C11.7592 5.31235 11.814 5.27045 11.8593 5.21846L11.8597 5.21801C11.9064 5.16617 11.9426 5.10379 11.968 5.0303C11.9934 4.95503 12.0063 4.86844 12.0063 4.77004V4.28026C12.0063 4.23807 12.0013 4.21143 11.9945 4.1966L11.9931 4.19357L11.9933 4.19352C11.9865 4.17411 11.9785 4.16496 11.9721 4.16073L11.9678 4.15787L11.968 4.15759C11.9597 4.15017 11.9513 4.14655 11.9423 4.14547L11.9418 4.14542C11.9281 4.1436 11.9154 4.14274 11.9038 4.14274H9.78276V7.61316V7.64885H9.74707H9.09353H9.05784V7.61316V3.72179C9.05784 3.66426 9.06682 3.60948 9.08499 3.55767C9.10292 3.50652 9.12738 3.46112 9.15859 3.42184L9.15922 3.42106L9.15923 3.42107C9.19241 3.38164 9.23146 3.35063 9.27627 3.32845C9.32164 3.30599 9.37066 3.29488 9.42281 3.29488H11.9038C12.0547 3.29488 12.1848 3.32787 12.2922 3.39585M11.5678 6.24475L12.2924 3.39599C12.2923 3.39594 12.2922 3.39589 12.2922 3.39585M11.5678 6.24475C11.6268 6.23983 11.688 6.22967 11.7512 6.21436M11.5678 6.24475L12.5468 3.64231M12.2922 3.39585C12.3969 3.46015 12.4819 3.54234 12.5468 3.64231M12.2922 3.39585C12.2921 3.3958 12.292 3.39576 12.292 3.39572L12.5468 3.64231M12.5468 3.64231C12.6127 3.73923 12.6596 3.8445 12.6874 3.95793M12.6874 3.95793C12.6874 3.95785 12.6874 3.95778 12.6874 3.9577L12.6529 3.96668L12.6875 3.9582C12.6875 3.95811 12.6875 3.95802 12.6874 3.95793ZM12.6874 3.95793C12.7165 4.06976 12.7313 4.17527 12.7313 4.27429V4.77004C12.7313 4.94965 12.7126 5.11108 12.6748 5.25402C12.6372 5.39609 12.5858 5.52266 12.5202 5.6334C12.4566 5.74162 12.3824 5.835 12.2975 5.91323C12.2134 5.99068 12.1248 6.05513 12.0316 6.1064L12.0313 6.10656C11.9399 6.15571 11.8466 6.1917 11.7512 6.21436M11.7512 6.21436C11.7513 6.21436 11.7513 6.21435 11.7513 6.21434L11.7429 6.17966L11.7512 6.21438C11.7512 6.21437 11.7512 6.21437 11.7512 6.21436ZM8.45443 5.60025C8.45439 5.60018 8.45435 5.60011 8.45431 5.60004L8.42359 5.6182L8.45455 5.60046C8.45451 5.60039 8.45447 5.60032 8.45443 5.60025ZM8.58627 6.77719C8.58628 6.77714 8.58629 6.77709 8.58631 6.77704L8.55178 6.76799L8.58623 6.77734C8.58624 6.77729 8.58625 6.77724 8.58627 6.77719Z" fill="#00BB9D" stroke="#00BB9D" stroke-width="0.0713766"/>
<rect opacity="0.8" x="0.575" y="0.575" width="16.85" height="9.85" rx="4.83773" stroke="#00BB9D" stroke-width="1.15"/>
</svg>
