<svg width="16" height="15" viewBox="0 0 16 15" fill="none" xmlns="http://www.w3.org/2000/svg">
<g clip-path="url(#clip0_3227_104785)">
<path d="M2.16992 3.69495H3.40156H13.2547" stroke="#656565" stroke-width="1.23164" stroke-linecap="round" stroke-linejoin="round"/>
<path d="M5.24785 3.69497V2.46333C5.24785 2.13668 5.37761 1.8234 5.60859 1.59243C5.83956 1.36145 6.15284 1.23169 6.47949 1.23169H8.94276C9.26941 1.23169 9.58269 1.36145 9.81366 1.59243C10.0446 1.8234 10.1744 2.13668 10.1744 2.46333V3.69497M12.0219 3.69497V12.3164C12.0219 12.6431 11.8921 12.9564 11.6611 13.1873C11.4301 13.4183 11.1169 13.5481 10.7902 13.5481H4.63203C4.30538 13.5481 3.99211 13.4183 3.76113 13.1873C3.53015 12.9564 3.40039 12.6431 3.40039 12.3164V3.69497H12.0219Z" stroke="#656565" stroke-width="1.23164" stroke-linecap="round" stroke-linejoin="round"/>
<path d="M8.94336 6.77405V10.469" stroke="#656565" stroke-width="1.23164" stroke-linecap="round" stroke-linejoin="round"/>
<path d="M6.48047 6.77405V10.469" stroke="#656565" stroke-width="1.23164" stroke-linecap="round" stroke-linejoin="round"/>
</g>
<defs>
<clipPath id="clip0_3227_104785">
<rect width="14.7797" height="14.7797" fill="white" transform="translate(0.322266)"/>
</clipPath>
</defs>
</svg>
