<svg width="14" height="14" viewBox="0 0 14 14" fill="none" xmlns="http://www.w3.org/2000/svg">
<path d="M13.289 6.04918C13.2341 5.9815 13.1647 5.92698 13.086 5.88963C13.0072 5.85228 12.9211 5.83305 12.834 5.83335H11.6673V5.25001C11.6673 4.78588 11.4829 4.34076 11.1548 4.01258C10.8266 3.68439 10.3814 3.50001 9.91732 3.50001H6.25398L6.06732 2.91668C5.94631 2.5744 5.72184 2.27822 5.42501 2.06919C5.12818 1.86016 4.77369 1.74861 4.41065 1.75001H2.33398C1.86986 1.75001 1.42474 1.93439 1.09655 2.26258C0.768359 2.59076 0.583984 3.03588 0.583984 3.50001V10.5C0.583984 10.9641 0.768359 11.4093 1.09655 11.7375C1.42474 12.0656 1.86986 12.25 2.33398 12.25H10.734C11.1314 12.2489 11.5165 12.1125 11.8261 11.8633C12.1357 11.6142 12.3512 11.2671 12.4373 10.8792L13.4173 6.54501C13.4351 6.45805 13.4327 6.36818 13.4105 6.28226C13.3882 6.19633 13.3467 6.11662 13.289 6.04918ZM3.13315 10.6283C3.10352 10.7599 3.0292 10.8772 2.92284 10.9601C2.81648 11.0431 2.68466 11.0866 2.54982 11.0833H2.33398C2.17927 11.0833 2.0309 11.0219 1.92151 10.9125C1.81211 10.8031 1.75065 10.6547 1.75065 10.5V3.50001C1.75065 3.3453 1.81211 3.19693 1.92151 3.08753C2.0309 2.97814 2.17927 2.91668 2.33398 2.91668H4.41065C4.53786 2.91004 4.66374 2.94522 4.76907 3.01685C4.8744 3.08847 4.9534 3.19261 4.99398 3.31335L5.30898 4.27001C5.34642 4.38128 5.41655 4.47867 5.51022 4.54944C5.60388 4.62021 5.71672 4.66107 5.83398 4.66668H9.91732C10.072 4.66668 10.2204 4.72814 10.3298 4.83753C10.4392 4.94693 10.5007 5.0953 10.5007 5.25001V5.83335H4.66732C4.53247 5.83005 4.40065 5.87359 4.2943 5.95655C4.18794 6.0395 4.11362 6.15676 4.08398 6.28835L3.13315 10.6283ZM11.2998 10.6283C11.2702 10.7599 11.1959 10.8772 11.0895 10.9601C10.9831 11.0431 10.8513 11.0866 10.7165 11.0833H4.20648C4.23661 11.0184 4.25818 10.9497 4.27065 10.8792L5.13398 7.00001H12.134L11.2998 10.6283Z" fill="#656565"/>
</svg>
