<svg width="18" height="11" viewBox="0 0 18 11" fill="none" xmlns="http://www.w3.org/2000/svg">
<path d="M7.71474 5.89893C7.76501 5.92282 7.80691 5.95667 7.84042 6.00047C7.87561 6.04427 7.90243 6.09604 7.92086 6.15577C7.93929 6.2155 7.94851 6.2812 7.94851 6.35287C7.94851 6.50021 7.91332 6.61767 7.84294 6.70528L7.71474 5.89893ZM7.71474 5.89893C7.66614 5.87504 7.61168 5.86309 7.55135 5.86309M7.71474 5.89893L7.55135 5.86309M4.98016 7.66316V7.61316V6.83668V6.78668H5.03016H7.55135C7.66393 6.78668 7.74567 6.74827 7.80359 6.67442L7.80396 6.67396C7.86525 6.59767 7.89851 6.49239 7.89851 6.35287C7.89851 6.28548 7.88984 6.22482 7.87308 6.17051C7.8563 6.11613 7.83226 6.07014 7.80144 6.03179L7.8007 6.03086L7.80071 6.03085C7.77207 5.99342 7.73645 5.96461 7.69328 5.94409L7.69268 5.9438L7.69268 5.9438C7.6517 5.92365 7.60491 5.91309 7.55135 5.91309H6.04819C5.93572 5.91309 5.81602 5.88977 5.68948 5.84446L5.6888 5.84422L5.68881 5.84422C5.55959 5.79585 5.44005 5.71936 5.33018 5.61576L5.32989 5.61548C5.22028 5.51046 5.12969 5.37416 5.05723 5.20815L5.05706 5.20775L5.05706 5.20775C4.985 5.03861 4.95 4.83441 4.95 4.59683C4.95 4.35928 4.98499 4.15597 5.05715 3.98869L5.05723 3.9885L5.05723 3.9885C5.12968 3.8225 5.22026 3.68621 5.32985 3.5812C5.43976 3.4755 5.55951 3.39878 5.68914 3.3523C5.81567 3.30497 5.9355 3.28057 6.04819 3.28057H8.27277H8.32277V3.33057V4.10705V4.15705H8.27277H6.04819C5.93808 4.15705 5.85607 4.1959 5.79611 4.2721C5.736 4.3506 5.70355 4.45727 5.70355 4.59683C5.70355 4.73849 5.73605 4.84473 5.7956 4.92091C5.85525 4.99321 5.93736 5.03064 6.04819 5.03064H7.55638H7.55779L7.55779 5.03066C7.63264 5.03277 7.71107 5.04543 7.79292 5.06814M4.98016 7.66316L7.78009 5.11648M4.98016 7.66316H5.03016H7.55135C7.62644 7.66316 7.70516 7.65254 7.78732 7.63177L7.77507 7.5833M4.98016 7.66316L7.77507 7.5833M7.79292 5.06814C7.79311 5.0682 7.7933 5.06825 7.79349 5.0683L7.78009 5.11648M7.79292 5.06814C7.79273 5.0681 7.79254 5.06805 7.79235 5.068L7.78009 5.11648M7.79292 5.06814C7.87615 5.08924 7.95798 5.1228 8.03837 5.16846C8.12102 5.21445 8.19887 5.27273 8.27197 5.34299M7.78009 5.11648C7.85886 5.13638 7.93678 5.16824 8.01386 5.21204C8.09262 5.25584 8.1672 5.31159 8.23758 5.37928M8.27197 5.34299C8.27188 5.34291 8.27179 5.34282 8.2717 5.34273L8.23758 5.37928M8.27197 5.34299C8.27206 5.34308 8.27215 5.34316 8.27224 5.34325L8.23758 5.37928M8.27197 5.34299C8.34623 5.41237 8.41109 5.4959 8.4668 5.59305M8.23758 5.37928C8.30796 5.44499 8.36996 5.52463 8.42359 5.6182M8.42359 5.6182L8.46663 5.59276C8.46669 5.59286 8.46675 5.59296 8.4668 5.59305M8.42359 5.6182C8.47889 5.71178 8.52246 5.81929 8.5543 5.94074C8.58614 6.06219 8.60206 6.19957 8.60206 6.35287C8.60206 6.50618 8.5853 6.64455 8.55178 6.76799M8.42359 5.6182L8.46697 5.59334C8.46691 5.59325 8.46686 5.59315 8.4668 5.59305M8.4668 5.59305C8.52471 5.69111 8.56986 5.80293 8.60266 5.92806C8.6358 6.05444 8.65206 6.19619 8.65206 6.35287C8.65206 6.50967 8.63493 6.65247 8.6001 6.78087M8.55178 6.76799L8.60015 6.78067C8.60013 6.78074 8.60011 6.78081 8.6001 6.78087M8.55178 6.76799C8.51994 6.88944 8.47721 6.99696 8.42359 7.09053C8.36996 7.18411 8.30712 7.26375 8.23506 7.32945C8.16301 7.39515 8.08844 7.44891 8.01135 7.49072C7.93426 7.53253 7.8555 7.56339 7.77507 7.5833M8.55178 6.76799L8.60004 6.78109C8.60006 6.78102 8.60008 6.78095 8.6001 6.78087M8.6001 6.78087C8.56732 6.90582 8.52308 7.01748 8.46697 7.11539C8.41103 7.213 8.34503 7.29684 8.26875 7.3664C8.19404 7.43452 8.1162 7.49073 8.03519 7.53467C7.95459 7.57839 7.87187 7.61085 7.78708 7.63183L7.77507 7.5833M9.79707 4.15705V4.10705H11.9038C11.9172 4.10705 11.9314 4.10804 11.9465 4.11003C11.9633 4.11203 11.9784 4.11899 11.9918 4.13094L9.74707 4.15705H9.79707ZM9.79707 4.15705H11.9038C11.9147 4.15705 11.9268 4.15786 11.94 4.1596L11.94 4.15961L11.9406 4.15969C11.9465 4.16039 11.9522 4.16268 11.9585 4.16827L11.9581 4.16866L11.9642 4.17267C11.9672 4.17461 11.9736 4.18064 11.9798 4.19826L11.9796 4.19833L11.9815 4.20257C11.987 4.21457 11.992 4.23872 11.992 4.28026V4.77004C11.992 4.86718 11.9792 4.95217 11.9545 5.02569C11.9297 5.09751 11.8944 5.15816 11.8491 5.20842L11.8485 5.20905C11.8045 5.25954 11.7513 5.30028 11.6885 5.33128C11.6279 5.36001 11.56 5.37843 11.4841 5.38603H10.0085H9.95849V5.43603V6.21251V6.26251H10.0085H10.4574L11.8051 7.64803L11.8198 7.66316H11.8409H12.8514H12.97L12.8872 7.57827L11.5988 6.2561C11.6493 6.25048 11.7012 6.24118 11.7546 6.22828M9.79707 4.15705V7.61316V7.66316H9.74707H9.09353H9.04353V7.61316V3.72179C9.04353 3.66275 9.05274 3.60636 9.07148 3.55294C9.08989 3.50044 9.11508 3.45359 9.14739 3.41294L9.14826 3.41184L9.14828 3.41186C9.18267 3.37099 9.22326 3.33872 9.26992 3.31562C9.31735 3.29214 9.36856 3.28057 9.42281 3.28057H11.9038C12.0568 3.28057 12.1896 3.31402 12.2998 3.38371C12.4061 3.44906 12.4927 3.53267 12.5588 3.6344C12.6256 3.73266 12.6731 3.83942 12.7013 3.95444C12.7306 4.06719 12.7456 4.17388 12.7456 4.27429V4.77004C12.7456 4.95061 12.7268 5.11331 12.6886 5.25768C12.6508 5.40084 12.5988 5.52866 12.5325 5.6407C12.4682 5.75 12.3932 5.84449 12.3072 5.92376C12.2223 6.00192 12.1328 6.06707 12.0385 6.11894L12.0381 6.11917C11.9457 6.16886 11.8512 6.20531 11.7546 6.22828M11.7546 6.22828C11.7546 6.22827 11.7546 6.22826 11.7547 6.22826L11.7429 6.17966L11.7545 6.2283C11.7545 6.2283 11.7545 6.22829 11.7546 6.22828ZM7.55135 5.86309H6.04819M7.55135 5.86309H6.04819M6.04819 5.86309C5.94262 5.86309 5.82867 5.84119 5.70634 5.79739L6.04819 5.86309Z" fill="#656565" stroke="#656565" stroke-width="0.1"/>
<rect x="0.575" y="0.575" width="16.85" height="9.85" rx="4.83773" stroke="#656565" stroke-width="1.15"/>
</svg>
