<svg width="24" height="24" viewBox="0 0 24 24" fill="none" xmlns="http://www.w3.org/2000/svg">
<g clip-path="url(#clip0)">
<path fill-rule="evenodd" clip-rule="evenodd" d="M12 3C7.02944 3 3 7.02944 3 12C3 14.2365 3.81581 16.2826 5.16609 17.8567C4.54847 17.7514 3.89095 17.9372 3.41421 18.4139C3.34471 18.4834 3.2814 18.5568 3.22427 18.6333C1.82819 16.7891 1 14.4913 1 12C1 5.92487 5.92487 1 12 1C14.4913 1 16.7891 1.82818 18.6332 3.22423C18.5568 3.28129 18.4836 3.34452 18.4142 3.41391C17.9373 3.89081 17.7516 4.54864 17.8571 5.16645C16.2829 3.81596 14.2367 3 12 3ZM6.15806 21.3222C7.85081 22.3853 9.85361 23 12 23C18.0751 23 23 18.0751 23 12C23 9.85362 22.3853 7.85083 21.3222 6.15808C21.2967 6.18674 21.2701 6.21484 21.2426 6.24234C20.7217 6.76329 19.9848 6.93677 19.3201 6.76278C20.3775 8.23813 21 10.0464 21 12C21 16.9706 16.9706 21 12 21C10.0466 21 8.23851 20.3777 6.76325 19.3204C6.93696 19.985 6.76343 20.7216 6.24264 21.2423C6.21504 21.2699 6.18683 21.2966 6.15806 21.3222Z" fill="current" fill-opacity="0.8"/>
<path d="M21.2426 6.24234C22.0237 5.46129 22.0237 4.19496 21.2426 3.41391C20.4616 2.63286 19.1953 2.63286 18.4142 3.41391C17.6332 4.19496 17.6332 5.46129 18.4142 6.24234C19.1953 7.02339 20.4616 7.02339 21.2426 6.24234Z" stroke="#00CEAD" stroke-width="2" stroke-linecap="round" stroke-linejoin="round"/>
<path d="M6.24264 21.2423C7.02369 20.4613 7.02369 19.195 6.24264 18.4139C5.46159 17.6329 4.19526 17.6329 3.41421 18.4139C2.63316 19.195 2.63316 20.4613 3.41421 21.2423C4.19526 22.0234 5.46159 22.0234 6.24264 21.2423Z" stroke="#00CEAD" stroke-width="2" stroke-linecap="round" stroke-linejoin="round"/>
</g>
<defs>
<clipPath id="clip0">
<rect width="24" height="24" fill="white"/>
</clipPath>
</defs>
</svg>
