<svg width="24" height="24" viewBox="0 0 24 24" fill="none" xmlns="http://www.w3.org/2000/svg">
<g clip-path="url(#clip0)">
<path fill-rule="evenodd" clip-rule="evenodd" d="M10.5021 1.40069C10.9577 1.13818 11.4742 1 12 1C12.5258 1 13.0424 1.1382 13.4979 1.40072L13.5 1.40192L18.5488 4.28696C18.5026 4.32556 18.4576 4.36658 18.4142 4.41001C17.9279 4.89628 17.7444 5.57066 17.8636 6.19892L12.5039 3.13619L12.5 3.13398L12.5 3.13397C12.348 3.04621 12.1755 3 12 3C11.8245 3 11.652 3.04621 11.5 3.13397L11.4961 3.1362L11.4961 3.13619L4.5 7.13398L4.49842 7.13489C4.34726 7.22253 4.22169 7.34826 4.13423 7.49956C4.04654 7.65125 4.00026 7.82333 4 7.99854V15.8315C3.4326 15.783 2.84842 15.9758 2.41421 16.41C2.29437 16.5298 2.19292 16.6611 2.10985 16.8003C2.03754 16.5405 2.00028 16.271 2 15.999V15.9979V7.99795V7.99692C2.00054 7.47084 2.13941 6.95414 2.40269 6.49867C2.66597 6.0432 3.04439 5.66497 3.5 5.40192L3.50386 5.3997L3.50386 5.39971L10.5021 1.40069ZM4.99566 19.4486L10.5 22.594L10.5019 22.595C10.9575 22.8577 11.4741 22.9959 12 22.9959C12.5259 22.9959 13.0426 22.8576 13.4982 22.595L13.5 22.594L20.4961 18.5962L20.5 18.594C20.9556 18.3309 21.334 17.9527 21.5973 17.4972C21.8606 17.0418 21.9995 16.5251 22 15.999V15.9979V7.99795V7.99692C21.9995 7.51706 21.8839 7.04502 21.6638 6.62012C21.5665 6.84462 21.4261 7.05492 21.2426 7.23843C20.8915 7.58953 20.4424 7.7828 19.9833 7.81825C19.9943 7.87763 19.9999 7.93811 20 7.99897V15.9969C19.9998 16.1723 19.9535 16.3445 19.8658 16.4963C19.7783 16.6476 19.6527 16.7734 19.5016 16.861L19.5 16.8619L12.5039 20.8597L12.5 20.8619C12.348 20.9497 12.1755 20.9959 12 20.9959C11.8245 20.9959 11.652 20.9497 11.5 20.8619L11.4961 20.8597L5.8175 17.6148C5.87813 18.194 5.68651 18.7946 5.24264 19.2384C5.16481 19.3163 5.08217 19.3863 4.99566 19.4486Z" fill="current" fill-opacity="0.8"/>
<path d="M21.2426 7.23843C22.0237 6.45738 22.0237 5.19105 21.2426 4.41001C20.4616 3.62896 19.1953 3.62896 18.4142 4.41001C17.6332 5.19105 17.6332 6.45738 18.4142 7.23843C19.1953 8.01948 20.4616 8.01948 21.2426 7.23843Z" stroke="#00D9B6" stroke-width="2" stroke-linecap="round" stroke-linejoin="round"/>
<path d="M5.24264 19.2384C6.02369 18.4574 6.02369 17.1911 5.24264 16.41C4.46159 15.629 3.19526 15.629 2.41421 16.41C1.63316 17.1911 1.63316 18.4574 2.41421 19.2384C3.19526 20.0195 4.46159 20.0195 5.24264 19.2384Z" stroke="#00D9B6" stroke-width="2" stroke-linecap="round" stroke-linejoin="round"/>
</g>
<defs>
<clipPath id="clip0">
<rect width="24" height="24" fill="white"/>
</clipPath>
</defs>
</svg>
