<svg width="24" height="24" viewBox="0 0 24 24" fill="none" xmlns="http://www.w3.org/2000/svg">
<g clip-path="url(#clip0)">
<path fill-rule="evenodd" clip-rule="evenodd" d="M17.8689 4.23468L4.23438 17.8692C4.60342 17.9456 4.95507 18.1269 5.24147 18.4133C5.47125 18.6431 5.63343 18.9149 5.72801 19.204L19.2037 5.72832C18.9146 5.63374 18.6428 5.47156 18.413 5.24177C18.1266 4.95537 17.9453 4.60373 17.8689 4.23468Z" fill="current" fill-opacity="0.8"/>
<path d="M5.24264 21.2426C6.02369 20.4616 6.02369 19.1953 5.24264 18.4142C4.46159 17.6332 3.19526 17.6332 2.41421 18.4142C1.63316 19.1953 1.63316 20.4616 2.41421 21.2426C3.19526 22.0237 4.46159 22.0237 5.24264 21.2426Z" stroke="#00D9B6" stroke-width="2" stroke-linecap="round" stroke-linejoin="round"/>
<path d="M21.2426 5.24264C22.0237 4.4616 22.0237 3.19527 21.2426 2.41422C20.4616 1.63317 19.1953 1.63317 18.4142 2.41422C17.6332 3.19527 17.6332 4.4616 18.4142 5.24264C19.1953 6.02369 20.4616 6.02369 21.2426 5.24264Z" stroke="#00D9B6" stroke-width="2" stroke-linecap="round" stroke-linejoin="round"/>
</g>
<defs>
<clipPath id="clip0">
<rect width="24" height="24" fill="white"/>
</clipPath>
</defs>
</svg>
