<svg width="24" height="24" viewBox="0 0 24 24" fill="none" xmlns="http://www.w3.org/2000/svg">
<path fill-rule="evenodd" clip-rule="evenodd" d="M2.25203 1.03213C2.19457 1.01723 2.13605 1.00752 2.0772 1.00299C2.02747 0.999132 1.97777 0.999028 1.92851 1.00256C1.69691 1.01906 1.46996 1.11584 1.29289 1.29291C1.07807 1.50773 0.981421 1.79598 1.00294 2.07687C1.00746 2.13583 1.01718 2.19448 1.03211 2.25205L4.52792 16.7347C4.61928 17.1132 4.92206 17.4042 5.30388 17.4806L11.0692 18.6337C10.9281 18.9927 11.0027 19.4169 11.2929 19.7071L14.2929 22.7071C14.6834 23.0977 15.3166 23.0977 15.7071 22.7071L22.7071 15.7071C23.0976 15.3166 23.0976 14.6834 22.7071 14.2929L19.7071 11.2929C19.4169 11.0027 18.9927 10.9282 18.6337 11.0693L17.4806 5.3039C17.4042 4.92208 17.1132 4.6193 16.7346 4.52794L2.25203 1.03213ZM3.80602 5.22025L8.87889 10.2931C9.26942 10.6837 9.90258 10.6837 10.2931 10.2931C10.6836 9.9026 10.6836 9.26944 10.2931 8.87891L5.22023 3.80604L15.6446 6.32228L16.9145 12.6713L12.6713 16.9145L6.32226 15.6447L3.80602 5.22025ZM18.7071 13.7071L18.708 13.7063L19 13.4142L20.5858 15L15 20.5858L13.4142 19L13.7057 18.7085L13.7071 18.7071L18.7071 13.7071Z" fill="current" fill-opacity="0.8"/>
<path d="M11 13C12.1046 13 13 12.1046 13 11C13 9.89543 12.1046 9 11 9C9.89543 9 9 9.89543 9 11C9 12.1046 9.89543 13 11 13Z" stroke="#00D9B6" stroke-width="2" stroke-linecap="round" stroke-linejoin="round"/>
</svg>
