<svg width="24" height="24" viewBox="0 0 24 24" fill="none" xmlns="http://www.w3.org/2000/svg">
<path fill-rule="evenodd" clip-rule="evenodd" d="M21.2426 5.24264C21.5942 4.89109 21.7875 4.44123 21.8226 3.98156C21.9374 4.29962 22 4.64265 22 5.00031V19.0003C22 20.6572 20.6569 22.0003 19 22.0003H5C4.6421 22.0003 4.29884 21.9376 3.9806 21.8227C4.4406 21.7878 4.89085 21.5944 5.24264 21.2426C5.58941 20.8959 5.78222 20.4534 5.82107 20.0003H19C19.5523 20.0003 20 19.5526 20 19.0003V5.8211C20.4532 5.78231 20.8958 5.58949 21.2426 5.24264ZM4 17.8358V5.00031C4 4.44802 4.44772 4.00031 5 4.00031H17.8358C17.7871 3.43281 17.9799 2.8485 18.4142 2.41422C18.5932 2.23526 18.7976 2.0973 19.0159 2.00035L19 2.00031H5C3.34315 2.00031 2 3.34345 2 5.00031V19.0003C2 19.0057 2.00001 19.0111 2.00004 19.0165C2.09701 18.798 2.23507 18.5934 2.41421 18.4142C2.84842 17.98 3.4326 17.7872 4 17.8358Z" fill="current" fill-opacity="0.8"/>
<path d="M21.2426 5.24264C22.0237 4.4616 22.0237 3.19527 21.2426 2.41422C20.4616 1.63317 19.1953 1.63317 18.4142 2.41422C17.6332 3.19527 17.6332 4.4616 18.4142 5.24264C19.1953 6.02369 20.4616 6.02369 21.2426 5.24264Z" stroke="#00D9B6" stroke-width="2" stroke-linecap="round" stroke-linejoin="round"/>
<path d="M5.24264 21.2426C6.02369 20.4616 6.02369 19.1953 5.24264 18.4142C4.46159 17.6332 3.19526 17.6332 2.41421 18.4142C1.63316 19.1953 1.63316 20.4616 2.41421 21.2426C3.19526 22.0237 4.46159 22.0237 5.24264 21.2426Z" stroke="#00D9B6" stroke-width="2" stroke-linecap="round" stroke-linejoin="round"/>
</svg>
