<svg width="8" height="8" viewBox="0 0 8 8" fill="none" xmlns="http://www.w3.org/2000/svg">
<path d="M0.140356 7.14167L3.28686 4L0.140356 0.858326C0.0492771 0.764169 -0.00112031 0.638062 1.89012e-05 0.507164C0.00115811 0.376267 0.0537427 0.251053 0.146447 0.158491C0.239151 0.0659295 0.364557 0.0134256 0.495655 0.0122881C0.626754 0.0111506 0.753055 0.0614708 0.847356 0.15241L3.99386 3.29408L7.14036 0.15241C7.18648 0.104728 7.24165 0.0666955 7.30265 0.0405312C7.36366 0.0143669 7.42927 0.000594873 7.49566 1.88496e-05C7.56205 -0.000557174 7.62788 0.0120742 7.68933 0.0371761C7.75078 0.0622779 7.80661 0.0993476 7.85355 0.146222C7.9005 0.193096 7.93763 0.248837 7.96277 0.310191C7.98791 0.371545 8.00056 0.437283 7.99998 0.503571C7.9994 0.569859 7.98561 0.635368 7.95941 0.696277C7.9332 0.757185 7.89511 0.812273 7.84736 0.858326L4.70086 4L7.84736 7.14167C7.89511 7.18773 7.9332 7.24282 7.95941 7.30372C7.98561 7.36463 7.9994 7.43014 7.99998 7.49643C8.00056 7.56272 7.98791 7.62846 7.96277 7.68981C7.93763 7.75116 7.9005 7.8069 7.85355 7.85378C7.80661 7.90065 7.75078 7.93772 7.68933 7.96282C7.62788 7.98793 7.56205 8.00056 7.49566 7.99998C7.42927 7.99941 7.36366 7.98563 7.30265 7.95947C7.24165 7.9333 7.18648 7.89527 7.14036 7.84759L3.99386 4.70592L0.847356 7.84759C0.753055 7.93853 0.626754 7.98885 0.495655 7.98771C0.364557 7.98658 0.239151 7.93407 0.146447 7.84151C0.0537427 7.74895 0.00115811 7.62373 1.89012e-05 7.49284C-0.00112031 7.36194 0.0492771 7.23583 0.140356 7.14167Z" fill="#2D3748"/>
</svg>
