<svg width="48" height="24" viewBox="0 0 48 24" fill="none" xmlns="http://www.w3.org/2000/svg">
<path d="M7.44884 16H12.1458V14.922H8.72484V7.904H7.44884V16ZM16.2866 16.143C18.3656 16.143 19.8176 14.526 19.8176 11.919C19.8176 9.312 18.3656 7.75 16.2866 7.75C14.2076 7.75 12.7666 9.312 12.7666 11.919C12.7666 14.526 14.2076 16.143 16.2866 16.143ZM16.2866 15.032C14.9446 15.032 14.0756 13.822 14.0756 11.919C14.0756 10.016 14.9446 8.861 16.2866 8.861C17.6286 8.861 18.5086 10.016 18.5086 11.919C18.5086 13.822 17.6286 15.032 16.2866 15.032ZM24.7996 16.143C25.9106 16.143 26.8236 15.736 27.3626 15.197V11.688H24.6016V12.733H26.2076V14.636C25.9216 14.889 25.4266 15.032 24.9316 15.032C23.2596 15.032 22.3686 13.855 22.3686 11.93C22.3686 10.027 23.3696 8.861 24.8766 8.861C25.6576 8.861 26.1526 9.18 26.5486 9.587L27.2416 8.773C26.7466 8.256 25.9766 7.75 24.8326 7.75C22.6876 7.75 21.0596 9.334 21.0596 11.974C21.0596 14.625 22.6326 16.143 24.7996 16.143ZM29.2125 16H30.4885V7.904H29.2125V16ZM32.607 16H33.817V12.183C33.817 11.303 33.718 10.368 33.652 9.532H33.707L34.554 11.226L37.238 16H38.547V7.904H37.337V11.677C37.337 12.557 37.436 13.536 37.502 14.372H37.447L36.6 12.656L33.916 7.904H32.607V16Z" fill="white" fill-opacity="0.9"/>
<rect x="0.5" y="0.5" width="47" height="23" rx="11.5" stroke="white"/>
</svg>
