<svg width="5" height="8" viewBox="0 0 5 8" fill="none" xmlns="http://www.w3.org/2000/svg">
<path d="M1.53252 0.103049L0.104958 1.53061C0.0716824 1.56389 0.0452865 1.60339 0.0272777 1.64687C0.00926889 1.69035 -2.36032e-07 1.73695 -2.33975e-07 1.784C-2.2982e-07 1.87905 0.0377545 1.97019 0.104958 2.0374C0.172162 2.1046 0.26331 2.14236 0.358351 2.14236C0.453391 2.14236 0.544539 2.1046 0.611743 2.0374L1.42902 1.21655L1.42902 5.35291C1.42902 5.44757 1.46662 5.53834 1.53355 5.60527C1.60048 5.6722 1.69126 5.7098 1.78591 5.7098C1.88057 5.7098 1.97134 5.6722 2.03827 5.60527C2.1052 5.53834 2.1428 5.44757 2.1428 5.35291L2.1428 0.356441C2.14245 0.285982 2.12125 0.217204 2.08188 0.158773C2.0425 0.100343 1.98671 0.0548758 1.92153 0.0281018C1.85654 0.000771441 1.78491 -0.00669535 1.71567 0.00664322C1.64644 0.0199813 1.58271 0.0535282 1.53252 0.103049ZM2.85659 1.784L2.85659 6.78048C2.85694 6.85093 2.87814 6.91971 2.91751 6.97814C2.95689 7.03657 3.01268 7.08204 3.07786 7.10881C3.14285 7.13615 3.21448 7.14361 3.28372 7.13027C3.35295 7.11694 3.41668 7.08339 3.46687 7.03387L4.89443 5.6063C4.92788 5.57313 4.95443 5.53365 4.97255 5.49016C4.99067 5.44667 5 5.40003 5 5.35291C5 5.3058 4.99067 5.25915 4.97255 5.21566C4.95443 5.17217 4.92788 5.1327 4.89443 5.09952C4.86125 5.06607 4.82178 5.03952 4.77829 5.0214C4.7348 5.00328 4.68815 4.99395 4.64104 4.99395C4.59393 4.99395 4.54728 5.00328 4.50379 5.0214C4.4603 5.03952 4.42083 5.06607 4.38765 5.09952L3.57037 5.92037L3.57037 1.784C3.57037 1.68935 3.53277 1.59857 3.46584 1.53164C3.39891 1.46471 3.30813 1.42711 3.21348 1.42711C3.11882 1.42711 3.02805 1.46471 2.96112 1.53164C2.89419 1.59857 2.85659 1.68935 2.85659 1.784Z" fill="black" fill-opacity="0.3"/>
</svg>
