<svg width="100" height="22" viewBox="0 0 100 22" fill="none" xmlns="http://www.w3.org/2000/svg">
<path d="M0 17.0696H6.52143V15.8121H1.34564V10.8413H5.67101V9.5837H1.35028V1.25754H6.52607V0H0.0046415L0 17.0696Z" fill="white"/>
<path d="M16.9098 8.23751C16.5421 7.78818 16.0943 7.41086 15.5892 7.12464C14.7292 6.61247 13.7476 6.34026 12.7467 6.33635C12.0207 6.32733 11.3003 6.46578 10.6294 6.74331C9.95842 7.02084 9.35082 7.43168 8.8433 7.95094C8.32191 8.45105 7.90853 9.05273 7.62876 9.71883C7.34898 10.3849 7.20872 11.1013 7.21663 11.8237C7.20872 12.5462 7.34898 13.2626 7.62876 13.9287C7.90853 14.5948 8.32191 15.1964 8.8433 15.6966C9.35082 16.2158 9.95842 16.6267 10.6294 16.9042C11.3003 17.1817 12.0207 17.3202 12.7467 17.3111C13.7288 17.3125 14.6929 17.0475 15.5363 16.5442C16.0615 16.2385 16.5268 15.8401 16.9098 15.3683V17.0682H18.2332V6.5784H16.9098V8.23751ZM15.7153 8.83939C16.114 9.22863 16.4294 9.69492 16.6422 10.2099C16.8551 10.7248 16.9609 11.2777 16.9534 11.8349C16.9619 12.3897 16.8575 12.9404 16.6466 13.4536C16.4357 13.9668 16.1226 14.4317 15.7264 14.8202C15.3507 15.2242 14.8943 15.5447 14.3867 15.7608C13.8791 15.977 13.3317 16.084 12.7801 16.0749C12.223 16.0822 11.6705 15.9741 11.1572 15.7576C10.6439 15.541 10.181 15.2206 9.79758 14.8165C9.39485 14.4351 9.07527 13.9746 8.85887 13.464C8.64247 12.9533 8.5339 12.4034 8.54002 11.8488C8.5347 11.2902 8.64371 10.7363 8.86028 10.2214C9.07686 9.70638 9.39646 9.24114 9.79945 8.85423C10.1779 8.4463 10.6373 8.12192 11.1483 7.90185C11.6594 7.68179 12.2107 7.5709 12.7671 7.57628C13.3194 7.56847 13.8673 7.67689 14.375 7.8945C14.8828 8.1121 15.3391 8.43403 15.7144 8.83939H15.7153Z" fill="white"/>
<path d="M24.3481 6.33621C23.6402 6.32799 22.9429 6.50888 22.3282 6.86019C22.0513 7.01841 21.7952 7.21063 21.5659 7.43239V6.57733H20.2434V17.0671H21.5659V10.1775C21.5649 9.8357 21.6352 9.49747 21.7722 9.18436C21.9092 8.87124 22.11 8.5901 22.3616 8.35885C22.5973 8.10964 22.8814 7.91124 23.1965 7.77584C23.5117 7.64044 23.8511 7.5709 24.1941 7.5715C24.5549 7.57885 24.9104 7.66017 25.2386 7.81044C25.5667 7.96071 25.8605 8.17672 26.1018 8.4451L26.6323 8.97557V7.19219L26.5071 7.09945C25.8903 6.61569 25.1319 6.34758 24.3481 6.33621Z" fill="white"/>
<path d="M29.7741 15.1763C29.5102 14.9175 29.303 14.6066 29.166 14.2633C29.029 13.9199 28.9651 13.5518 28.9784 13.1824V7.83503H32.0045V6.59974H28.9803V2.61194H27.6569V13.1842C27.6413 13.7227 27.7394 14.2584 27.9449 14.7563C28.1504 15.2543 28.4587 15.7033 28.8495 16.074C29.6184 16.8145 30.6497 17.2198 31.717 17.2008H32.0277V15.9646H31.717C31.3565 15.973 30.998 15.9075 30.6638 15.7719C30.3297 15.6363 30.0269 15.4336 29.7741 15.1763Z" fill="white"/>
<path d="M37.9693 6.33822C37.3183 6.29995 36.6671 6.4087 36.064 6.65642C35.4608 6.90414 34.9211 7.28446 34.485 7.76919V0.0217285H33.1616V17.07H34.485V11.0132C34.4819 10.5604 34.5735 10.112 34.7539 9.69675C34.9344 9.28149 35.1998 8.90858 35.533 8.60199C35.8477 8.27374 36.2261 8.01313 36.645 7.83613C37.0639 7.65913 37.5145 7.56946 37.9693 7.57259C38.4123 7.56581 38.8518 7.65249 39.2591 7.82698C39.6665 8.00148 40.0324 8.25986 40.3332 8.5853C40.6529 8.90221 40.9051 9.28051 41.0749 9.69742C41.2446 10.1143 41.3283 10.5613 41.3209 11.0114V17.0682H42.6443V11.0114C42.6547 10.3968 42.5402 9.78654 42.308 9.21747C42.0757 8.6484 41.7304 8.13236 41.293 7.70057C40.8617 7.25812 40.3442 6.90891 39.7725 6.67457C39.2008 6.44024 38.587 6.32576 37.9693 6.33822Z" fill="white"/>
<path d="M49.9208 6.33659C48.9446 6.34188 47.9871 6.60588 47.1461 7.10169C46.6169 7.39849 46.1456 7.78838 45.755 8.25259V6.57772H44.4316V21.455H45.755V15.3685C46.1622 15.8465 46.6507 16.2487 47.198 16.5565C48.023 17.0417 48.961 17.3014 49.9181 17.3095C50.6471 17.3216 51.371 17.1845 52.0452 16.9069C52.7195 16.6293 53.3299 16.2168 53.8391 15.6949C54.3575 15.1935 54.7681 14.5916 55.0459 13.926C55.3236 13.2604 55.4628 12.5452 55.4546 11.824C55.4627 11.1027 55.3236 10.3873 55.0459 9.72159C54.7681 9.05586 54.3575 8.45377 53.8391 7.95211C53.3303 7.43046 52.7203 7.01814 52.0465 6.74036C51.3728 6.46257 50.6495 6.32519 49.9208 6.33659ZM54.1285 11.8342C54.1368 12.389 54.0323 12.9398 53.8212 13.453C53.6101 13.9662 53.2969 14.4311 52.9006 14.8195C52.5249 15.2235 52.0685 15.5441 51.5609 15.7602C51.0533 15.9764 50.5059 16.0834 49.9542 16.0742C49.3972 16.0815 48.8447 15.9735 48.3314 15.7569C47.8181 15.5403 47.3552 15.2199 46.9717 14.8158C46.5691 14.4343 46.2496 13.9739 46.0332 13.4632C45.8168 12.9525 45.7082 12.4027 45.7142 11.8481C45.709 11.2888 45.8183 10.7344 46.0354 10.2189C46.2525 9.70346 46.5727 9.23786 46.9764 8.85076C47.3547 8.44279 47.8142 8.11838 48.3252 7.89831C48.8363 7.67824 49.3877 7.56737 49.944 7.57281C50.4964 7.56555 51.0442 7.67449 51.5518 7.89257C52.0593 8.11065 52.5154 8.433 52.8904 8.8387C53.289 9.22805 53.6043 9.69435 53.8171 10.2093C54.0299 10.7242 54.1359 11.2771 54.1285 11.8342Z" fill="white"/>
<path d="M66.0555 8.23751C65.6878 7.78819 65.24 7.41087 64.7348 7.12464C63.8749 6.61239 62.8933 6.34017 61.8924 6.33636C61.1662 6.32727 60.4457 6.46568 59.7746 6.74321C59.1035 7.02074 58.4957 7.43162 57.988 7.95095C57.4666 8.45106 57.0533 9.05274 56.7735 9.71884C56.4938 10.3849 56.3535 11.1013 56.3614 11.8238C56.3535 12.5462 56.4938 13.2626 56.7735 13.9287C57.0533 14.5948 57.4666 15.1964 57.988 15.6966C58.4957 16.2159 59.1035 16.6268 59.7746 16.9043C60.4457 17.1818 61.1662 17.3202 61.8924 17.3112C62.8745 17.3126 63.8386 17.0475 64.682 16.5442C65.2071 16.2385 65.6725 15.84 66.0555 15.3683V17.0682H67.3789V6.57841H66.0555V8.23751ZM64.861 8.8394C65.2598 9.22859 65.5753 9.69485 65.7883 10.2098C66.0013 10.7248 66.1073 11.2777 66.1 11.8349C66.1083 12.3897 66.0038 12.9405 65.7927 13.4537C65.5816 13.9669 65.2684 14.4318 64.8721 14.8202C64.4964 15.2242 64.0399 15.5447 63.5324 15.7608C63.0248 15.977 62.4774 16.084 61.9258 16.0749C61.3687 16.0822 60.8162 15.9742 60.3029 15.7576C59.7896 15.541 59.3267 15.2206 58.9433 14.8165C58.5406 14.435 58.2211 13.9746 58.0047 13.4639C57.7883 12.9532 57.6797 12.4034 57.6857 11.8488C57.6805 11.2902 57.7896 10.7364 58.0062 10.2215C58.2228 9.70651 58.5423 9.24125 58.9451 8.85423C59.3235 8.44631 59.783 8.12193 60.294 7.90186C60.805 7.6818 61.3564 7.5709 61.9128 7.57628C62.4656 7.56803 63.014 7.67623 63.5222 7.89385C64.0305 8.11147 64.4873 8.43363 64.8628 8.8394H64.861Z" fill="white"/>
<path d="M74.879 6.33649C73.9024 6.34166 72.9447 6.60566 72.1033 7.10159C71.5742 7.39839 71.1029 7.78828 70.7122 8.25249V6.57762H69.3879V21.4549H70.7113V15.3684C71.1185 15.8464 71.607 16.2486 72.1543 16.5564C72.9793 17.0416 73.9174 17.3013 74.8744 17.3094C75.6026 17.3205 76.3254 17.183 76.9986 16.9052C77.6719 16.6274 78.2814 16.2153 78.7899 15.6939C79.3082 15.1924 79.7188 14.5905 79.9965 13.9249C80.2743 13.2594 80.4135 12.5441 80.4054 11.823C80.4135 11.1017 80.2744 10.3863 79.9966 9.72056C79.7188 9.05483 79.3082 8.45274 78.7899 7.95108C78.2818 7.43056 77.6729 7.01897 77.0006 6.74138C76.3282 6.46379 75.6063 6.32603 74.879 6.33649ZM79.0866 11.8341C79.095 12.3889 78.9904 12.9397 78.7793 13.4529C78.5683 13.9661 78.2551 14.431 77.8587 14.8194C77.4831 15.2234 77.0266 15.544 76.519 15.7601C76.0114 15.9763 75.464 16.0833 74.9124 16.0741C74.3554 16.0814 73.8029 15.9734 73.2896 15.7568C72.7763 15.5402 72.3134 15.2198 71.9299 14.8157C71.5273 14.4342 71.2077 13.9738 70.9914 13.4631C70.775 12.9524 70.6664 12.4026 70.6724 11.848C70.6672 11.2894 70.7763 10.7356 70.9928 10.2207C71.2094 9.70572 71.5289 9.24045 71.9318 8.85344C72.3101 8.44547 72.7696 8.12106 73.2806 7.90099C73.7917 7.68092 74.3431 7.57005 74.8994 7.57549C75.4518 7.56823 75.9996 7.67717 76.5072 7.89525C77.0147 8.11333 77.4708 8.43568 77.8458 8.84138C78.2445 9.23016 78.5601 9.69591 78.7734 10.2104C78.9867 10.7248 79.0933 11.2772 79.0866 11.8341Z" fill="white"/>
<path d="M91.1823 8.25937C90.6763 7.66264 90.0462 7.18347 89.336 6.85528C88.6258 6.52708 87.8526 6.35776 87.0702 6.35914C86.3269 6.34266 85.5881 6.47718 84.8983 6.75454C84.2086 7.03191 83.5823 7.44637 83.0574 7.97281C82.5389 8.46605 82.127 9.06028 81.847 9.71887C81.5671 10.3775 81.4251 11.0864 81.4298 11.802C81.428 12.524 81.572 13.2389 81.8531 13.9039C82.1342 14.5689 82.5466 15.1703 83.0657 15.672C83.5593 16.1981 84.1559 16.6169 84.8183 16.9025C85.4808 17.1881 86.1949 17.3343 86.9162 17.3321H87.1138C87.8722 17.3378 88.6229 17.1788 89.3138 16.8659C90.0048 16.553 90.6195 16.0938 91.1155 15.52L91.1971 15.4272V13.1709L90.6286 14.0148C90.2116 14.6373 89.6577 15.1563 89.0094 15.532C88.3379 15.9096 87.578 16.1016 86.8077 16.0884C85.9799 16.0482 85.1859 15.7473 84.5393 15.2287L91.3826 8.47268L91.1823 8.25937ZM83.6268 14.3459C83.0459 13.6013 82.7377 12.6803 82.7532 11.7362C82.7531 11.1948 82.8649 10.6593 83.0814 10.1632C83.298 9.66703 83.6147 9.22095 84.0117 8.85291C84.3783 8.45642 84.823 8.13998 85.3177 7.92342C85.8124 7.70686 86.3465 7.59485 86.8866 7.59443C87.8428 7.58418 88.7739 7.90055 89.5259 8.49122L83.6268 14.3459Z" fill="white"/>
<path d="M98.9958 7.09945C98.3791 6.61557 97.6207 6.34744 96.8369 6.33621C96.1289 6.32799 95.4317 6.50888 94.817 6.86019C94.5402 7.01825 94.2844 7.21049 94.0556 7.43239V6.57733H92.7322V17.0671H94.0556V10.1775C94.0544 9.83576 94.1245 9.49756 94.2614 9.18443C94.3982 8.87131 94.5989 8.59014 94.8504 8.35885C95.0861 8.10968 95.3702 7.9113 95.6853 7.77591C96.0004 7.64051 96.3399 7.57095 96.6829 7.5715C97.0437 7.57896 97.3992 7.66033 97.7273 7.81059C98.0554 7.96085 98.3492 8.17681 98.5905 8.4451L99.121 8.97557V7.19219L98.9958 7.09945Z" fill="white"/>
</svg>
