<svg width="14" height="10" viewBox="0 0 14 10" fill="none" xmlns="http://www.w3.org/2000/svg">
<mask id="mask0_1994_8011" style="mask-type:alpha" maskUnits="userSpaceOnUse" x="0" y="0" width="14" height="9">
<path d="M1.78655 8.02563H10.6243C11.2231 8.01877 11.7979 7.78924 12.2367 7.38175C12.6756 6.97427 12.947 6.41801 12.9982 5.82134C13.0493 5.22468 12.8765 4.63034 12.5134 4.15412C12.1503 3.6779 11.6229 3.35389 11.034 3.24522C10.8916 3.22135 10.7581 3.15949 10.6479 3.06617C10.5376 2.97285 10.4545 2.85153 10.4074 2.71496C10.0993 1.81603 9.48261 1.0554 8.66678 0.568202C7.85095 0.0810002 6.88882 -0.101226 5.95133 0.0538983C5.01384 0.209022 4.16169 0.691452 3.54628 1.41548C2.93086 2.13951 2.59203 3.05825 2.58998 4.00848C2.58998 4.22157 2.50533 4.42592 2.35466 4.57659C2.20399 4.72727 1.99963 4.81191 1.78655 4.81191C1.36038 4.81191 0.951671 4.98121 0.650326 5.28255C0.348981 5.5839 0.179688 5.99261 0.179688 6.41877C0.179688 6.84494 0.348981 7.25365 0.650326 7.555C0.951671 7.85634 1.36038 8.02563 1.78655 8.02563Z" fill="black"/>
</mask>
<g mask="url(#mask0_1994_8011)">
<rect x="0.179688" y="3.41016" width="13.7582" height="4.58608" fill="#00D9B6"/>
</g>
<path d="M10.681 2.73351C10.2833 1.82057 9.59715 1.06327 8.72775 0.577709C7.85836 0.092149 6.85371 -0.0948643 5.86783 0.0453429C4.88195 0.18555 3.96927 0.645238 3.26971 1.35393C2.57016 2.06262 2.12235 2.98118 1.99495 3.9688C1.37509 4.11724 0.831321 4.48816 0.466922 5.01112C0.102522 5.53407 -0.0571358 6.17264 0.0182685 6.80555C0.0936729 7.43847 0.398888 8.02165 0.875951 8.44435C1.35301 8.86706 1.9687 9.09984 2.60609 9.0985H9.75776C10.5375 9.09635 11.2905 8.81398 11.8795 8.3029C12.4684 7.79182 12.854 7.08607 12.9659 6.31438C13.0778 5.54269 12.9086 4.75647 12.4892 4.09913C12.0698 3.44178 11.428 2.95711 10.681 2.73351ZM9.75776 7.79819H2.60609C2.26123 7.79819 1.93049 7.6612 1.68664 7.41734C1.44278 7.17349 1.30579 6.84275 1.30579 6.49789C1.30579 6.15303 1.44278 5.82229 1.68664 5.57844C1.93049 5.33458 2.26123 5.19759 2.60609 5.19759C2.77852 5.19759 2.94389 5.12909 3.06582 5.00716C3.18775 4.88523 3.25624 4.71987 3.25624 4.54743C3.25791 3.77849 3.53209 3.03502 4.0301 2.44912C4.52811 1.86323 5.21768 1.47283 5.97632 1.3473C6.73495 1.22177 7.51353 1.36924 8.17371 1.76349C8.8339 2.15774 9.33296 2.77326 9.58222 3.50069C9.62036 3.6112 9.6876 3.70938 9.77684 3.7849C9.86609 3.86041 9.97404 3.91047 10.0893 3.92979C10.5659 4.01772 10.9927 4.27992 11.2865 4.66529C11.5803 5.05066 11.7201 5.5316 11.6788 6.01444C11.6374 6.49727 11.4177 6.94741 11.0626 7.27715C10.7075 7.6069 10.2423 7.79264 9.75776 7.79819Z" fill="black"/>
</svg>
