<svg width="14" height="10" viewBox="0 0 14 10" fill="none" xmlns="http://www.w3.org/2000/svg">
<path d="M9.62675 8.50582L1.3091 0.188165C1.18862 0.067685 1.02521 -1.26947e-09 0.854825 0C0.68444 1.26947e-09 0.521033 0.067685 0.400553 0.188165C0.280073 0.308646 0.212388 0.472052 0.212388 0.642437C0.212388 0.812822 0.280073 0.976228 0.400553 1.09671L2.55035 3.2401C2.36133 3.64541 2.23409 4.07674 2.17285 4.51974C1.51665 4.61997 0.925057 4.97125 0.522959 5.49943C0.12086 6.0276 -0.0602859 6.69135 0.017757 7.35056C0.0957998 8.00978 0.426925 8.61287 0.941239 9.03256C1.45555 9.45224 2.11281 9.65567 2.77428 9.59991H8.91015L10.6377 11.3338C10.6971 11.3938 10.7679 11.4414 10.8459 11.4739C10.9238 11.5063 11.0075 11.5231 11.0919 11.5231C11.1764 11.5231 11.26 11.5063 11.338 11.4739C11.416 11.4414 11.4867 11.3938 11.5462 11.3338C11.6062 11.2743 11.6538 11.2036 11.6863 11.1256C11.7187 11.0476 11.7355 10.964 11.7355 10.8795C11.7355 10.7951 11.7187 10.7115 11.6863 10.6335C11.6538 10.5555 11.6062 10.4848 11.5462 10.4253L9.62675 8.50582ZM2.77428 8.32027C2.4349 8.32027 2.10942 8.18545 1.86944 7.94547C1.62946 7.70549 1.49464 7.38001 1.49464 7.04063C1.49464 6.70125 1.62946 6.37577 1.86944 6.13579C2.10942 5.89581 2.4349 5.76099 2.77428 5.76099C2.94397 5.76099 3.10671 5.69358 3.2267 5.57359C3.34669 5.4536 3.4141 5.29086 3.4141 5.12117C3.41471 4.82018 3.45778 4.52078 3.54207 4.23182L7.63051 8.32027H2.77428ZM10.7208 3.34247C10.374 2.54094 9.80035 1.8583 9.07053 1.37857C8.34072 0.898849 7.48656 0.642973 6.6132 0.642437C6.10722 0.640003 5.60476 0.726633 5.12882 0.898365C4.98292 0.964279 4.86703 1.0825 4.80403 1.22968C4.74104 1.37686 4.73551 1.54232 4.78854 1.69338C4.84157 1.84444 4.94931 1.97013 5.09049 2.04563C5.23166 2.12114 5.39601 2.14098 5.5511 2.10122C5.89218 1.98081 6.25149 1.9202 6.6132 1.92208C7.2809 1.92257 7.93172 2.13197 8.47443 2.52093C9.01714 2.9099 9.42454 3.45892 9.63954 4.09106C9.67612 4.20101 9.74186 4.29896 9.82975 4.37446C9.91765 4.44996 10.0244 4.50017 10.1386 4.51974C10.4639 4.5773 10.7689 4.71787 11.024 4.92785C11.2791 5.13782 11.4757 5.41008 11.5947 5.71829C11.7138 6.0265 11.7512 6.36022 11.7035 6.68716C11.6558 7.01409 11.5245 7.32317 11.3223 7.58448C11.2177 7.71707 11.1697 7.88564 11.1889 8.05344C11.2081 8.22124 11.2928 8.37465 11.4246 8.48022C11.5372 8.57054 11.677 8.62014 11.8213 8.62098C11.9174 8.62054 12.0122 8.59845 12.0986 8.55636C12.185 8.51427 12.2608 8.45326 12.3204 8.37785C12.6412 7.96787 12.8571 7.4858 12.9493 6.97348C13.0416 6.46115 13.0075 5.93405 12.8499 5.43791C12.6923 4.94177 12.416 4.49159 12.0449 4.12643C11.6739 3.76127 11.2194 3.49217 10.7208 3.34247Z" fill="black"/>
</svg>
