<svg width="14" height="10" viewBox="0 0 14 10" fill="none" xmlns="http://www.w3.org/2000/svg">
<path d="M10.681 2.73351C10.2833 1.82057 9.59715 1.06327 8.72775 0.577709C7.85836 0.092149 6.85371 -0.0948643 5.86783 0.0453429C4.88195 0.18555 3.96927 0.645238 3.26971 1.35393C2.57016 2.06262 2.12235 2.98118 1.99495 3.9688C1.37509 4.11724 0.831321 4.48816 0.466922 5.01112C0.102522 5.53407 -0.0571358 6.17264 0.0182685 6.80555C0.0936729 7.43847 0.398888 8.02165 0.875951 8.44435C1.35301 8.86706 1.9687 9.09984 2.60609 9.0985H9.75776C10.5375 9.09635 11.2905 8.81398 11.8795 8.3029C12.4684 7.79182 12.854 7.08607 12.9659 6.31438C13.0778 5.54269 12.9086 4.75647 12.4892 4.09913C12.0698 3.44178 11.428 2.95711 10.681 2.73351ZM9.75776 7.79819H2.60609C2.26123 7.79819 1.93049 7.6612 1.68664 7.41734C1.44278 7.17349 1.30579 6.84275 1.30579 6.49789C1.30579 6.15303 1.44278 5.82229 1.68664 5.57844C1.93049 5.33458 2.26123 5.19759 2.60609 5.19759C2.77852 5.19759 2.94389 5.12909 3.06582 5.00716C3.18775 4.88523 3.25624 4.71987 3.25624 4.54743C3.25791 3.77849 3.53209 3.03502 4.0301 2.44912C4.52811 1.86323 5.21768 1.47283 5.97632 1.3473C6.73495 1.22177 7.51353 1.36924 8.17371 1.76349C8.8339 2.15774 9.33296 2.77326 9.58222 3.50069C9.62036 3.6112 9.6876 3.70938 9.77684 3.7849C9.86609 3.86041 9.97404 3.91047 10.0893 3.92979C10.5659 4.01772 10.9927 4.27992 11.2865 4.66529C11.5803 5.05066 11.7201 5.5316 11.6788 6.01444C11.6374 6.49727 11.4177 6.94741 11.0626 7.27715C10.7075 7.6069 10.2423 7.79264 9.75776 7.79819Z" fill="black"/>
</svg>
